<mxfile host="app.diagrams.net" agent="Mozilla/5.0 (Windows NT 10.0; Win64; x64) AppleWebKit/537.36 (KHTML, like Gecko) Chrome/131.0.0.0 Safari/537.36" version="25.0.1">
  <diagram name="Page-1" id="KKq-k4mfs-p19cEHmZZm">
    <mxGraphModel dx="1336" dy="1350" grid="1" gridSize="10" guides="1" tooltips="1" connect="1" arrows="1" fold="1" page="1" pageScale="1" pageWidth="850" pageHeight="1100" math="0" shadow="0">
      <root>
        <mxCell id="0" />
        <mxCell id="1" parent="0" />
        <mxCell id="r7Uz0amz6yewWXryFc4E-1" value="AZ Google Cloud Platform" style="rounded=1;whiteSpace=wrap;html=1;strokeWidth=2;container=1;collapsible=0;recursiveResize=0;fillColor=#f5f5f5;strokeColor=#666666;dropTarget=1;dashed=1;shadow=1;arcSize=2;verticalAlign=top;align=left;spacingLeft=27;fontColor=#333333;" vertex="1" parent="1">
          <mxGeometry x="-170" y="-190" width="1200" height="840" as="geometry" />
        </mxCell>
        <mxCell id="r7Uz0amz6yewWXryFc4E-110" value="OneView Customer" style="rounded=1;whiteSpace=wrap;html=1;strokeWidth=2;container=1;collapsible=0;recursiveResize=0;fillColor=#f5f5f5;strokeColor=#666666;dropTarget=1;dashed=1;shadow=1;arcSize=2;verticalAlign=top;align=left;spacingLeft=27;fontColor=#333333;" vertex="1" parent="r7Uz0amz6yewWXryFc4E-1">
          <mxGeometry x="490" y="40" width="650" height="250" as="geometry" />
        </mxCell>
        <mxCell id="r7Uz0amz6yewWXryFc4E-111" value="" style="shape=image;aspect=fixed;image=data:image/svg+xml,PHN2ZyBoZWlnaHQ9IjIwNiIgcHJlc2VydmVBc3BlY3RSYXRpbz0ieE1pZFlNaWQiIHZpZXdCb3g9IjAgMCAyNTYgMjA2IiB3aWR0aD0iMjU2IiB4bWxucz0iaHR0cDovL3d3dy53My5vcmcvMjAwMC9zdmciPjxwYXRoIGQ9Im0xNzAuMjUxNyA1Ni44MTg2IDIyLjI1My0yMi4yNTMgMS40ODMtOS4zN2MtNDAuNTUxLTM2Ljg3My0xMDUuMDEyLTMyLjY5Mi0xNDEuNTY3IDguNzI0LTEwLjE1NCAxMS41MDMtMTcuNjg3IDI1Ljg0NC0yMS43MDQgNDAuNjUzbDcuOTctMS4xMjMgNDQuNTA1LTcuMzM5IDMuNDM2LTMuNTE0YzE5Ljc5Ny0yMS43NDIgNTMuMjctMjQuNjY3IDc2LjEyOC02LjE2OHoiIGZpbGw9IiNlYTQzMzUiLz48cGF0aCBkPSJtMjI0LjIwNDggNzMuOTE4MmMtNS4xMTUtMTguODM2LTE1LjYxNi0zNS43NjktMzAuMjE3LTQ4LjcyMmwtMzEuMjMyIDMxLjIzMmMxMy4xODggMTAuNzc2IDIwLjcwMSAyNy4wMSAyMC4zNzkgNDQuMDM3djUuNTQ0YzE1LjM1MSAwIDI3Ljc5NyAxMi40NDUgMjcuNzk3IDI3Ljc5NiAwIDE1LjM1Mi0xMi40NDYgMjcuNDg1LTI3Ljc5NyAyNy40ODVoLTU1LjY3MWwtNS40NjYgNS45MzR2MzMuMzRsNS40NjYgNS4yMzFoNTUuNjcxYzM5LjkzLjMxMSA3Mi41NTItMzEuNDk0IDcyLjg2My03MS40MjQuMTg4LTI0LjIwMy0xMS43NDUtNDYuODkzLTMxLjc5My02MC40NTMiIGZpbGw9IiM0Mjg1ZjQiLz48cGF0aCBkPSJtNzEuODcwNCAyMDUuNzk1N2g1NS41OTN2LTQ0LjUwNmgtNTUuNTkzYy0zLjk2MS0uMDAxLTcuNzk3LS44NTItMTEuMzk5LTIuNDk4bC03Ljg4NyAyLjQyLTIyLjQwOSAyMi4yNTMtMS45NTIgNy41NzRjMTIuNTY3IDkuNDg5IDI3LjkgMTQuODI1IDQzLjY0NyAxNC43NTciIGZpbGw9IiMzNGE4NTMiLz48cGF0aCBkPSJtNzEuODcwNCA2MS40MjU1Yy0zOS45MzEuMjM4LTcyLjEwNyAzMi44MDItNzEuODY5IDcyLjczMi4xMzMgMjIuMjk4IDEwLjU0NyA0My4yODggMjguMjIyIDU2Ljg4MWwzMi4yNDgtMzIuMjQ3Yy0xMy45OTEtNi4zMjEtMjAuMjA4LTIyLjc4Ni0xMy44ODctMzYuNzc2IDYuMzItMTMuOTkgMjIuNzg2LTIwLjIwNyAzNi43NzUtMTMuODg3IDYuMTY1IDIuNzg1IDExLjEwMiA3LjcyMyAxMy44ODcgMTMuODg3bDMyLjI0OC0zMi4yNDdjLTEzLjcyMS0xNy45MzctMzUuMDQxLTI4LjQyNC01Ny42MjQtMjguMzQzIiBmaWxsPSIjZmJiYzA1Ii8+PC9zdmc+;movable=0;" vertex="1" parent="r7Uz0amz6yewWXryFc4E-110">
          <mxGeometry x="5" y="5" width="19.88" height="16" as="geometry" />
        </mxCell>
        <mxCell id="r7Uz0amz6yewWXryFc4E-129" style="edgeStyle=orthogonalEdgeStyle;rounded=0;orthogonalLoop=1;jettySize=auto;html=1;exitX=1;exitY=0.5;exitDx=0;exitDy=0;" edge="1" parent="r7Uz0amz6yewWXryFc4E-110" source="r7Uz0amz6yewWXryFc4E-113" target="r7Uz0amz6yewWXryFc4E-66">
          <mxGeometry relative="1" as="geometry" />
        </mxCell>
        <mxCell id="r7Uz0amz6yewWXryFc4E-113" value="Opt-in APIs" style="shape=mxgraph.gcp2.doubleRect;strokeColor=#666666;shadow=1;strokeWidth=2;rounded=1;absoluteArcSize=1;arcSize=2;fillColor=#f5f5f5;fontColor=#333333;spacingTop=10;spacingLeft=28;spacingBottom=7;spacingRight=8;dropTarget=0;" vertex="1" parent="r7Uz0amz6yewWXryFc4E-110">
          <mxGeometry x="70" y="180" width="170.01" height="50" as="geometry" />
        </mxCell>
        <mxCell id="r7Uz0amz6yewWXryFc4E-114" value="Kubernetes Engine" style="editableCssRules=.*;html=1;fontColor=#999999;shape=image;verticalLabelPosition=middle;verticalAlign=top;labelPosition=right;align=left;spacingLeft=5;part=1;points=[];imageAspect=0;image=data:image/svg+xml,PHN2ZyB4bWxucz0iaHR0cDovL3d3dy53My5vcmcvMjAwMC9zdmciIHhtbG5zOnY9Imh0dHBzOi8vdmVjdGEuaW8vbmFubyIgd2lkdGg9IjMyOS45MjU5OTcyMzE3OTM4IiBoZWlnaHQ9IjM3OC4yODQ5OTAzMTEyNzg4IiB2aWV3Qm94PSIwIDAgODcuMjkyOTk5MjY3NTc4MTIgMTAwLjA4Nzk5NzQzNjUyMzQ0Ij4mI3hhOzxzdHlsZSB0eXBlPSJ0ZXh0L2NzcyI+JiN4YTsJLnN0MHtmaWxsOiNhZWNiZmE7fSYjeGE7CS5zdDF7ZmlsbDojNjY5ZGY2O30mI3hhOwkuc3Qye2ZpbGw6IzQyODVmNDt9JiN4YTs8L3N0eWxlPiYjeGE7CTxwYXRoIGNsYXNzPSJzdDAiIGQ9Ik00My43NTEgMEwwIDI1LjQ2NXYyLjU4OCA0Ni45Mmw0My43NTIgMjUuMTE1IDQzLjU0MS0yNS4xMjFWMjUuNDczem0yLjQzOCAxMS44NTNsMzIuMTAzIDE4Ljc4MlY2OS43N0w0My43MzkgODkuNzA1IDkgNjkuNzYyVjMwLjY0MWwzMi4xOS0xOC43MzZ2MTQuMTU0TDI0LjUwMyAzNi4xNTNsMTkuMTcyIDExLjUwMiAxOC44ODYtMTEuNTU0LTE2LjM3Mi0xMC4wMjR6Ii8+JiN4YTsJPHBhdGggY2xhc3M9InN0MSIgZD0iTTIyLjAyNSA0MC40OTZsLjE2NiAxOS4xNDMtMTMuMjQ3IDcuMzN2Mi43NDJsMi42MzcgMS41MTQgMTIuNjQ4LTYuOTk5IDE2Ljk2MSAxMC42MDJWNTEuOTkzeiIvPiYjeGE7CTxwYXRoIGNsYXNzPSJzdDIiIGQ9Ik02NS4zNDQgNDAuMjZMNDYuMTg5IDUxLjk3OXYyMi44NDdsMTYuODk5LTEwLjU3NiAxMi41MzkgNi45NzQgMi42MDktMS41MDV2LTIuNzY1bC0xMi43ODQtNy4xMTJ6Ii8+JiN4YTs8L3N2Zz4=;spacingTop=-7;spacing=0;connectable=0;allowArrows=0;" vertex="1" parent="r7Uz0amz6yewWXryFc4E-113">
          <mxGeometry width="26" height="30" relative="1" as="geometry">
            <mxPoint x="5" y="5" as="offset" />
          </mxGeometry>
        </mxCell>
        <mxCell id="r7Uz0amz6yewWXryFc4E-115" value="BS" style="text;html=1;align=right;verticalAlign=top;whiteSpace=wrap;rounded=0;spacing=4;spacingTop=-6;fontColor=#999999;spacingRight=7;connectable=0;allowArrows=0;" vertex="1" parent="r7Uz0amz6yewWXryFc4E-113">
          <mxGeometry x="140.14" width="29.87" height="15" as="geometry" />
        </mxCell>
        <mxCell id="r7Uz0amz6yewWXryFc4E-66" value="opt-in-changed" style="strokeWidth=2;html=1;shape=stencil(zVbBcsIgEP0ajulgqGM9dqK9tZcePK8RlREhA1Tt35eEZDQmcXDrTHtj3w7v7bIPBsIyu4WCk5Qq2HPCZiRNZ8Lw3HloBg587FfbkElpCI8hfKlDsEW5ocIOYAQsJQ8Z64ze8aNYuZpBqC03wpVZNif0lZSUlLAs10p5EqGVbWUu8p4MhCoLOwUy+kTHQee7BkJUeIk9d9y00HODH4uAkPTtDi2cFEZp+oySmqO0pm2tp3QcK/d+v97oSixS6zGdTSLVPjGddaY2ihX7vRdjpTBKFCeFumH02h7RE1tgJobz4mM6i75lQ52xzCNDjybLlpDvNkZ/qVVvlQWUD3In0aT3+sDP5fc+fP39NwRSqAuCCYIBTO4Xpl2CaVxYU5wSOAmbGO2gPIQWvQSz4YmnSdYSNi332iPnRRfurxbTMIbh7xpGTCeX2vIbt8DjHYtV6IAvWbbWht8w7FpIGT4TN1TvcvV/NyUlaFP2n3+TGzzGaltnDhUaPokV8AM=);whiteSpace=wrap;fillColor=#dae8fc;strokeColor=#6c8ebf;container=0;collapsible=0;recursiveResize=1;dropTarget=1;spacingRight=24;shadow=1;spacingTop=10;spacingLeft=28;align=center;" vertex="1" parent="r7Uz0amz6yewWXryFc4E-110">
          <mxGeometry x="350.01" y="185" width="160" height="40" as="geometry" />
        </mxCell>
        <mxCell id="r7Uz0amz6yewWXryFc4E-67" value="Confluent Kafka" style="editableCssRules=.*;html=1;fontColor=#999999;shape=image;verticalLabelPosition=middle;verticalAlign=top;labelPosition=right;align=left;spacingLeft=5;part=1;points=[];imageAspect=0;image=data:image/svg+xml,PD94bWwgdmVyc2lvbj0iMS4wIiBlbmNvZGluZz0iVVRGLTgiPz4KPCEtLSBVcGxvYWRlZCB0bzogU1ZHIFJlcG8sIHd3dy5zdmdyZXBvLmNvbSwgR2VuZXJhdG9yOiBTVkcgUmVwbyBNaXhlciBUb29scyAtLT4KPHN2ZyB3aWR0aD0iODAwcHgiIGhlaWdodD0iODAwcHgiIHZpZXdCb3g9Ii03OC41IDAgNDEzIDQxMyIgdmVyc2lvbj0iMS4xIiB4bWxucz0iaHR0cDovL3d3dy53My5vcmcvMjAwMC9zdmciIHhtbG5zOnhsaW5rPSJodHRwOi8vd3d3LnczLm9yZy8xOTk5L3hsaW5rIiBwcmVzZXJ2ZUFzcGVjdFJhdGlvPSJ4TWlkWU1pZCI+CiAgICA8Zz4KICAgICAgICA8cGF0aCBkPSJNODcuOTMyMDY5MiwzNi43MTQxODEgQzgzLjM4MjkzNiwzMi4xNDI3NDgyIDc3LjAzNjQ0OTEsMjkuMzE5NjA5NiA2OS45ODA4MzI3LDI5LjMxOTYwOTYgQzYyLjk1MTk3NTksMjkuMzE5NjA5NiA1Ni42NTQ1NDgzLDMyLjE0Mjc0ODIgNTIuMTU4OTM0MywzNi43MTQxODEgTDUyLjAyOTU5NjIsMzYuNzE0MTgxIEM0Ny40OTM4NDI4LDQxLjI2MzMxNDMgNDQuNjcwNzA0Miw0Ny42MTQyNjEgNDQuNjcwNzA0Miw1NC42NDMxMTc5IEM0NC42NzA3MDQyLDYxLjY5ODczNDMgNDcuNDkzODQyOCw2Ny45OTYxNjE4IDUyLjAyOTU5NjIsNzIuNTE4NTM1NSBMNTIuMTU4OTM0Myw3Mi42MjExMTM5IEM1Ni42NTQ1NDgzLDc3LjE3MDI0NzIgNjIuOTUxOTc1OSw3OS45NjY2MjYxIDY5Ljk4MDgzMjcsNzkuOTY2NjI2MSBDNzcuMDM2NDQ5MSw3OS45NjY2MjYxIDgzLjM4MjkzNiw3Ny4xNzAyNDcyIDg3LjkzMjA2OTIsNzIuNjIxMTEzOSBMODcuOTk4OTY4Miw3Mi41MTg1MzU1IEM5Mi41NTcwMjEzLDY3Ljk5NjE2MTggOTUuMzUzNDAwMiw2MS42OTg3MzQzIDk1LjM1MzQwMDIsNTQuNjQzMTE3OSBDOTUuMzUzNDAwMiw0Ny42MTQyNjEgOTIuNTU3MDIxMyw0MS4yNjMzMTQzIDg3Ljk5ODk2ODIsMzYuNzE0MTgxIEw4Ny45MzIwNjkyLDM2LjcxNDE4MSBaIE02OS45ODA4MzI3LDM4My4zNTM2NzIgQzc3LjAzNjQ0OTEsMzgzLjM1MzY3MiA4My4zODI5MzYsMzgwLjQ4MTQ3NSA4Ny45MzIwNjkyLDM3NS45ODU4NjEgTDg3Ljk5ODk2ODIsMzc1Ljg1MjA2MyBDOTIuNTU3MDIxMywzNzEuMzY1MzY4IDk1LjM1MzQwMDIsMzY1LjAxNDQyMiA5NS4zNTM0MDAyLDM1OC4wMzQ2MjQgQzk1LjM1MzQwMDIsMzUwLjk3OTAwOCA5Mi41NTcwMjEzLDM0NC42NTQ4MjEgODcuOTk4OTY4MiwzNDAuMDgzMzg4IEw4Ny45MzIwNjkyLDM0MC4wODMzODggQzgzLjM4MjkzNiwzMzUuNDU4NDM2IDc3LjAzNjQ0OTEsMzMyLjY2MjA1NyA2OS45ODA4MzI3LDMzMi42NjIwNTcgQzYyLjk1MTk3NTksMzMyLjY2MjA1NyA1Ni42NTQ1NDgzLDMzNS40NTg0MzYgNTIuMTU4OTM0MywzNDAuMDgzMzg4IEw1Mi4wMjk1OTYyLDM0MC4wODMzODggQzQ3LjQ5Mzg0MjgsMzQ0LjY1NDgyMSA0NC42NzA3MDQyLDM1MC45NzkwMDggNDQuNjcwNzA0MiwzNTguMDM0NjI0IEM0NC42NzA3MDQyLDM2NS4wMTQ0MjIgNDcuNDkzODQyOCwzNzEuMzY1MzY4IDUyLjAyOTU5NjIsMzc1Ljg1MjA2MyBMNTIuMTU4OTM0MywzNzUuOTg1ODYxIEM1Ni42NTQ1NDgzLDM4MC40ODE0NzUgNjIuOTUxOTc1OSwzODMuMzUzNjcyIDY5Ljk4MDgzMjcsMzgzLjM1MzY3MiBaIE0yMDcuOTUzMzY3LDMwNi42MzM4NzkgQzIxNC4yMjg0OTUsMzA0Ljk4ODE2MyAyMTkuOTEwNDUyLDMwMC45NjA4NDIgMjIzLjM3NTgyMSwyOTQuODczMDMxIEwyMjMuODQ0MTE0LDI5My45ODU1MDQgQzIyNi45MjU5MjksMjg4LjIwOTg4OSAyMjcuNDg3ODgxLDI4MS41NDY3NDcgMjI1Ljg0MjE2NSwyNzUuNjQxNzk0IEMyMjQuMTgzMDY5LDI2OS4zMTc2MDcgMjIwLjEwNjY4OSwyNjMuNzI0ODQ5IDIxNC4wMzIyNTgsMjYwLjIyMzggTDIxMy42Nzk5MjMsMjU5Ljk4NzQyMyBDMjA3Ljc2MTU5LDI1Ni43NDUwNTEgMjAxLjAxODE2OSwyNTYuMDQwMzgxIDE5NC44MjMzMiwyNTcuNzEyODU3IEMxODguNTI1ODkzLDI1OS4yODI3NTQgMTgyLjg3MDY5NiwyNjMuNDg4NDcyIDE3OS40MjMxNjYsMjY5LjUyNzIyMyBDMTc1LjkzMTAzNywyNzUuNTA3OTk2IDE3NS4xOTk2MDgsMjgyLjQwNzUxNCAxNzYuODcyMDg0LDI4OC43NTg0NjEgQzE3OC41OTgwNzgsMjk1LjAwMjM2OSAxODIuNjM0MzE5LDMwMC42NDg2NDcgMTg4LjY2ODYxLDMwNC4xNzY0NTUgTDE4OC43MDg3NSwzMDQuMTc2NDU1IEMxOTQuNzU2NDIxLDMwNy42NTA3NDQgMjAxLjYwNjg4LDMwOC4yNzk1OTUgMjA3Ljk1MzM2NywzMDYuNjMzODc5IFogTTk1Ljk2ODg3MTIsMTgwLjM4NjUxMiBDODkuMzE0NjQ4OSwxNzMuNzUwMTI5IDgwLjE0NTAyMzUsMTY5LjU5MzQ3IDY5Ljk4MDgzMjcsMTY5LjU5MzQ3IEM1OS44NTY3ODEzLDE2OS41OTM0NyA1MC43MDk0NTU2LDE3My43NTAxMjkgNDQuMDY4NjEzMSwxODAuMzg2NTEyIEMzNy40NTg5OTAxLDE4Ny4wMDA1OTUgMzMuMzgyNjEsMTk2LjE0NzkyMSAzMy4zODI2MSwyMDYuMjg1MzUyIEMzMy4zODI2MSwyMTYuNDQ5NTQzIDM3LjQ1ODk5MDEsMjI1LjYyMzYyOCA0NC4wNjg2MTMxLDIzMi4zMTM1MyBDNTAuNzA5NDU1NiwyMzguODk2MzkzIDU5Ljg1Njc4MTMsMjQzLjAyNjI5MiA2OS45ODA4MzI3LDI0My4wMjYyOTIgQzgwLjE0NTAyMzUsMjQzLjAyNjI5MiA4OS4zMTQ2NDg5LDIzOC44OTYzOTMgOTUuOTY4ODcxMiwyMzIuMzEzNTMgQzEwMi41OTE4NzQsMjI1LjYyMzYyOCAxMDYuNjY4MjU0LDIxNi40NDk1NDMgMTA2LjY2ODI1NCwyMDYuMjg1MzUyIEMxMDYuNjY4MjU0LDE5Ni4xNDc5MjEgMTAyLjU5MTg3NCwxODcuMDAwNTk1IDk1Ljk2ODg3MTIsMTgwLjM4NjUxMiBaIE04MS4zNTgxMjU3LDEzNy4yMjMyNjYgQzk2LjA4NDgyOTUsMTM5LjY0OTQ3IDEwOS4zMzUyOTUsMTQ2LjcwNTA4NiAxMTkuNDQ1OTY3LDE1Ni44OTYwMzcgTDExOS41MjYyNDUsMTU2Ljg5NjAzNyBDMTIxLjEzMTgyMiwxNTguNTE0OTkzIDEyMi43MDE3MTksMTYwLjI2Nzc0NyAxMjQuMTUxMTk4LDE2Mi4wNDI4MDEgTDE0OS40MzQ1NjYsMTQ3LjQxNDIxNiBDMTQ2LjAzNjA5NiwxMzcuMTQyOTg3IDE0NS44Nzk5OTksMTI2LjQwMzQ2NCAxNDguNjA5NDc4LDExNi4zNDE4NTIgQzE1Mi4yMTc1NjUsMTAyLjg1NTAxIDE2MC45NTkwMzcsOTAuNzgxOTY3NCAxNzQuMDYyMzI1LDgzLjIwNDUzODYgTDE3NC40OTQ5MzgsODIuOTQ1ODYyNCBDMTg3LjQ1NTUwOCw3NS42MDAzNTAyIDIwMi4xOTExMzIsNzQuMDgzOTcyNSAyMTUuNDk1MTE3LDc3LjY5MjA1OTUgQzIyOC45NjQxMTksODEuMjk1Njg2NiAyNDEuMTE3NDQsOTAuMDc3Mjk3NyAyNDguNjgxNDg5LDEwMy4xNzE2NjUgTDI0OC42ODE0ODksMTAzLjE5ODQyNSBDMjU2LjIwOTg1OSwxMTYuMjEyNTE0IDI1Ny43Mzk2MTYsMTMxLjE1Nzc1NSAyNTQuMTQ0OTA5LDE0NC41OTEwNzcgQzI1MC41NjM1ODIsMTU4LjA2OSAyNDEuNzgxOTcxLDE3MC4yMjIzMjEgMjI4LjY5MjA2MywxNzcuNzQ2MjMxIEwyMjUuMjQwMDc0LDE3OS43ODg4ODEgTDIyNC44ODc3MzksMTc5Ljc4ODg4MSBDMjEyLjc3OTAxNiwxODUuNTYwMDM2IDE5OS40NjE2NTIsMTg2LjQ1MjAyMyAxODcuMjMyNTExLDE4My4yMzY0MSBDMTc3LjE4ODczOSwxODAuNTY5MzY5IDE2Ny45NzQ1MTQsMTc0Ljk3NjYxMSAxNjAuNzYyOCwxNjcuMDA2NzA4IEwxMzUuNTE5NTcxLDE4MS41OTA2OTQgQzEzOC40MTg1MjgsMTg5LjI3MDcwMiAxNDAuMDI4NTY0LDE5Ny41NTcyNiAxNDAuMDI4NTY0LDIwNi4yODUzNTIgQzE0MC4wMjg1NjQsMjE0Ljk4NjY4NCAxMzguNDE4NTI4LDIyMy4zNzU4MjEgMTM1LjUxOTU3MSwyMzEuMTA5MzQ3IEwxNjAuNzYyOCwyNDUuNjM5ODE0IEMxNjcuOTc0NTE0LDIzNy41NjczMzMgMTc3LjE4ODczOSwyMzIuMDc3MTUzIDE4Ny4yMzI1MTEsMjI5LjQxMDExMiBDMjAwLjcwMTUxNCwyMjUuNzI2MjA2IDIxNS42Mzc4MzUsMjI3LjI5NjEwMyAyMjguNjkyMDYzLDIzNC45MDAyOTIgTDIyOS41MjYwNzEsMjM1LjI5Mjc2NiBMMjI5LjUyNjA3MSwyMzUuMzQ2Mjg1IEMyNDIuMTM4NzY1LDI0Mi45NzI3NzMgMjUwLjYwMzcyMSwyNTQuNzg3MTQgMjU0LjE0NDkwOSwyNjguMTEzNDI0IEMyNTcuNzM5NjE2LDI4MS40NjY0NjggMjU2LjIwOTg1OSwyOTYuNDE2MTY5IDI0OC42ODE0ODksMzA5LjQ1NzAxNyBMMjQ4LjIyNjU3NiwzMTAuMzcxMzA0IEwyNDguMTczMDU3LDMxMC4yOTEwMjUgQzI0MC42MDkwMDgsMzIyLjg2MzU4IDIyOC42OTIwNjMsMzMxLjM4MjA1NSAyMTUuNTM1MjU2LDMzNC45ODU2ODMgQzIwMi4wMzUwMzQsMzM4LjU0MDI1IDE4Ny4xMDMxNzMsMzM3LjAyMzg3MyAxNzQuMDYyMzI1LDMyOS41MjY3MjMgTDE3NC4wNjIzMjUsMzI5LjQxOTY4NCBDMTYwLjk1OTAzNywzMjEuODQyMjU1IDE1Mi4yMTc1NjUsMzA5Ljc0MjQ1MyAxNDguNjA5NDc4LDI5Ni4yODY4MzEgQzE0NS44Nzk5OTksMjg2LjI1MTk3OCAxNDYuMDM2MDk2LDI3NS41MDc5OTYgMTQ5LjQzNDU2NiwyNjUuMjQxMjI2IEwxMjQuMTUxMTk4LDI1MC42NTcyNCBDMTIyLjcwMTcxOSwyNTIuNDM2NzU0IDEyMS4xMzE4MjIsMjU0LjEwOTIzIDExOS41MjYyNDUsMjU1LjcyODE4NiBMMTE5LjQ0NTk2NywyNTUuODA0MDA1IEMxMDkuMzM1Mjk1LDI2NS45NDU4OTYgOTYuMDg0ODI5NSwyNzMuMDAxNTEyIDgxLjM1ODEyNTcsMjc1LjM1MTg5OCBMODEuMzU4MTI1NywzMDQuNTY4OTI5IEM5MS44NTIzNTE2LDMwNi43NjMyMTcgMTAxLjI1ODM1NCwzMTIuMDE3MDIgMTA4LjYzMDYyNSwzMTkuMzg0ODMyIEwxMDguNjY2MzA1LDMxOS40NjUxMSBDMTE4LjU0NTA2LDMyOS4yOTAzNDYgMTI0LjY1OTYzLDM0Mi45ODIzNDUgMTI0LjY1OTYzLDM1OC4wMzQ2MjQgQzEyNC42NTk2MywzNzMuMDM3ODQ0IDExOC41NDUwNiwzODYuNjQ1MTA0IDEwOC42NjYzMDUsMzk2LjUyMzg1OSBMMTA4LjYzMDYyNSwzOTYuNjc5OTU3IEM5OC42ODQ5NzEzLDQwNi41NTg3MTIgODUuMDMzMTExNyw0MTIuNjczMjgyIDY5Ljk4MDgzMjcsNDEyLjY3MzI4MiBDNTUuMDA4ODMyNSw0MTIuNjczMjgyIDQxLjMzOTEzMzIsNDA2LjU1ODcxMiAzMS40MjAyMzg4LDM5Ni42Nzk5NTcgTDMxLjM4NDU1OTMsMzk2LjY3OTk1NyBMMzEuMzg0NTU5MywzOTYuNTIzODU5IEMyMS40OTI0MjQ1LDM4Ni42NDUxMDQgMTUuMzY0NDc0NSwzNzMuMDM3ODQ0IDE1LjM2NDQ3NDUsMzU4LjAzNDYyNCBDMTUuMzY0NDc0NSwzNDIuOTgyMzQ1IDIxLjQ5MjQyNDUsMzI5LjI5MDM0NiAzMS4zODQ1NTkzLDMxOS40NjUxMSBMMzEuMzg0NTU5MywzMTkuMzg0ODMyIEwzMS40MjAyMzg4LDMxOS4zODQ4MzIgQzM4Ljc3OTEzMDcsMzEyLjAxNzAyIDQ4LjE5ODUxMjUsMzA2Ljc2MzIxNyA1OC42NjU5Nzg4LDMwNC41Njg5MjkgTDU4LjY2NTk3ODgsMjc1LjM1MTg5OCBDNDMuOTI1ODk1MiwyNzMuMDAxNTEyIDMwLjcxNTU2OTEsMjY1Ljk0NTg5NiAyMC42MTgyNzczLDI1NS44MDQwMDUgTDIwLjUxMTIzODksMjU1LjcyODE4NiBDNy44ODk2MjQxOCwyNDMuMDUzMDUyIDAsMjI1LjYyMzYyOCAwLDIwNi4yODUzNTIgQzAsMTg3LjAwMDU5NSA3Ljg4OTYyNDE4LDE2OS41NzExNzEgMjAuNTExMjM4OSwxNTYuODk2MDM3IEwyMC42MTgyNzczLDE1Ni44OTYwMzcgQzMwLjcxNTU2OTEsMTQ2LjcwNTA4NiA0My45MjU4OTUyLDEzOS42NDk0NyA1OC42NjU5Nzg4LDEzNy4yMjMyNjYgTDU4LjY2NTk3ODgsMTA4LjEzNTU3MyBDNDguMTk4NTEyNSwxMDUuODYxMDA2IDM4Ljc3OTEzMDcsMTAwLjYxMTY2MyAzMS40MjAyMzg4LDkzLjI5MjkxMDUgTDMxLjM4NDU1OTMsOTMuMjkyOTEwNSBMMzEuMzg0NTU5Myw5My4yMTI2MzE3IEMyMS40OTI0MjQ1LDgzLjI4NDgxNzQgMTUuMzY0NDc0NSw2OS42OTUzOTY5IDE1LjM2NDQ3NDUsNTQuNjQzMTE3OSBDMTUuMzY0NDc0NSwzOS42NjY2NTc3IDIxLjQ5MjQyNDUsMjUuOTQ3ODk5MSAzMS4zODQ1NTkzLDE2LjA2OTE0NDEgTDMxLjQyMDIzODgsMTYuMDIwMDg0OCBDNDEuMzM5MTMzMiw2LjExNDU3MDI0IDU1LjAwODgzMjUsMCA2OS45ODA4MzI3LDAgQzg1LjAzMzExMTcsMCA5OC42ODQ5NzEzLDYuMTE0NTcwMjQgMTA4LjYzMDYyNSwxNi4wMjAwODQ4IEwxMDguNjMwNjI1LDE2LjA2OTE0NDEgTDEwOC42NjYzMDUsMTYuMDY5MTQ0MSBDMTE4LjU0NTA2LDI1Ljk0Nzg5OTEgMTI0LjY1OTYzLDM5LjY2NjY1NzcgMTI0LjY1OTYzLDU0LjY0MzExNzkgQzEyNC42NTk2Myw2OS42OTUzOTY5IDExOC41NDUwNiw4My4yODQ4MTc0IDEwOC42NjYzMDUsOTMuMjEyNjMxNyBMMTA4LjYzMDYyNSw5My4yOTI5MTA1IEMxMDEuMjU4MzU0LDEwMC42MTE2NjMgOTEuODUyMzUxNiwxMDUuODYxMDA2IDgxLjM1ODEyNTcsMTA4LjEzNTU3MyBMODEuMzU4MTI1NywxMzcuMjIzMjY2IFogTTIyMy4zNzU4MjEsMTE3LjgzMTQ3IEwyMjMuMTY2MjA0LDExNy41MTkyNzUgQzIxOS42NzQwNzUsMTExLjYzNjYyMSAyMTQuMTA4MDc3LDEwNy43MTYzMzkgMjA3Ljk1MzM2NywxMDYuMDE3MTA0IEMyMDEuNjA2ODgsMTA0LjM0NDYyOCAxOTQuNzU2NDIxLDEwNS4wNTM3NTggMTg4LjY2ODYxLDEwOC41MjgwNDcgTDE4OC43MDg3NSwxMDguNTI4MDQ3IEMxODIuNjM0MzE5LDExMS45NzU1NzYgMTc4LjU3MTMxOSwxMTcuNjIxODUzIDE3Ni44NzIwODQsMTIzLjk0NjA0MSBDMTc1LjE5OTYwOCwxMzAuMjE2NzA4IDE3NS45MzEwMzcsMTM3LjE0Mjk4NyAxNzkuNDIzMTY2LDE0My4xNzcyNzggTDE3OS41MzkxMjQsMTQzLjMzNzgzNiBDMTgzLjA0MDE3MywxNDkuMjkxODQ4IDE4OC42MDYxNzEsMTUzLjI4Nzk1IDE5NC44MjMzMiwxNTQuOTA2OTA2IEMyMDEuMDcxNjg4LDE1Ni42NTk2NiAyMDguMDMzNjQ2LDE1NS45MjgyMzEgMjE0LjAzMjI1OCwxNTIuNDI3MTgyIEwyMTQuMzU3ODMzLDE1Mi4yNzEwODUgQzIyMC4yNjI3ODcsMTQ4Ljc0MzI3NiAyMjQuMTk2NDQ5LDE0My4xNzcyNzggMjI1Ljg0MjE2NSwxMzcuMDYyNzA4IEMyMjcuNTE0NjQsMTMwLjc2NTI4IDIyNi44NTAxMSwxMjMuODY1NzYyIDIyMy4zNzU4MjEsMTE3LjgzMTQ3IFoiIGZpbGw9IiMxQTE5MTkiPgoNPC9wYXRoPgogICAgPC9nPgo8L3N2Zz4=;spacingTop=-7;spacing=0;resizeWidth=0;resizable=0;perimeterSpacing=0;connectable=0;allowArrows=0;" vertex="1" parent="r7Uz0amz6yewWXryFc4E-66">
          <mxGeometry x="5" y="5" width="30" height="30" as="geometry" />
        </mxCell>
        <mxCell id="r7Uz0amz6yewWXryFc4E-120" value="OneView DB" style="strokeWidth=2;html=1;shape=mxgraph.flowchart.database;whiteSpace=wrap;fillColor=#f5f5f5;fontColor=#333333;strokeColor=none;spacingTop=10;dropTarget=0;container=0;collapsible=0;recursiveResize=1;spacingLeft=20;shadow=1;" vertex="1" parent="r7Uz0amz6yewWXryFc4E-110">
          <mxGeometry x="350.01" y="95" width="130" height="60" as="geometry" />
        </mxCell>
        <mxCell id="r7Uz0amz6yewWXryFc4E-121" value="Spanner" style="text;html=1;align=center;verticalAlign=middle;whiteSpace=wrap;rounded=0;fontColor=#999999;movable=0;connectable=0;allowArrows=0;" vertex="1" parent="r7Uz0amz6yewWXryFc4E-120">
          <mxGeometry width="130" height="20" as="geometry" />
        </mxCell>
        <mxCell id="r7Uz0amz6yewWXryFc4E-122" value="" style="sketch=0;html=1;verticalAlign=top;labelPosition=center;verticalLabelPosition=bottom;align=center;spacingTop=-6;fontSize=11;fontStyle=1;fontColor=#999999;shape=image;aspect=fixed;imageAspect=0;image=data:image/svg+xml,PHN2ZyB4bWxucz0iaHR0cDovL3d3dy53My5vcmcvMjAwMC9zdmciIHhtbG5zOnY9Imh0dHBzOi8vdmVjdGEuaW8vbmFubyIgd2lkdGg9IjIwIiBoZWlnaHQ9IjE4LjQ1OTk5OTA4NDQ3MjY1NiIgZmlsbC1ydWxlPSJldmVub2RkIiB2aWV3Qm94PSIwIDAgMjAgMTguNDU5OTk5MDg0NDcyNjU2Ij4mI3hhOwk8c3R5bGUgdHlwZT0idGV4dC9jc3MiPiYjeGE7CQkuc3Qwe2ZpbGw6IzQyODVmNDt9JiN4YTsJCS5zdDF7ZmlsbDojNjY5ZGY2O30mI3hhOwkJLnN0MntmaWxsOiNhZWNiZmE7fSYjeGE7CTwvc3R5bGU+JiN4YTsJPHBhdGggY2xhc3M9InN0MSIgZD0iTTguNjYgNS42M3Y0LjM2bC0zLjc3IDIuMTggMS4zNCAyLjMyTDEwIDEyLjMxbDMuNzcgMi4xOCAxLjM0LTIuMzItMy43Ny0yLjE4VjUuNjN6Ii8+JiN4YTsJPHBhdGggY2xhc3M9InN0MCIgZD0iTTEwIDUuNjN2NS4xMmwtNC40NCAyLjU4LjY3IDEuMTZMMTAgMTIuMzFsMy43NyAyLjE4IDEuMzQtMi4zMi0zLjc3LTIuMThWNS42M3oiLz4mI3hhOwk8cGF0aCBjbGFzcz0ic3QyIiBkPSJNNi42MiA0Ljk1TDEwIDYuNzhWMy42N2wtMS4zNS0uNjJWMEw2LjYyIDEuMjJ6Ii8+JiN4YTsJPHBhdGggY2xhc3M9InN0MSIgZD0iTTEwIDYuNzhsMy4zOC0xLjgzVjEuMjJMMTEuMzUgMHYzLjA1TDEwIDMuNjd6bTYuMTQgNy41M2wtLjA4IDEuMzkgMi43IDEuNTMtMi4xOCAxLjItMy4yNC0xLjg3LjExLTMuODMgMy4yNy0yTDIwIDEyLjYxdjIuNDlsLTIuNjktMS41NXptLTEyLjI4IDBsLTEuMTctLjc2TDAgMTUuMXYtMi40OWwzLjIzLTEuODcgMy4yNyAyIC4xMSAzLjgzLTMuMTkgMS44OS0yLjE4LTEuMjMgMi43LTEuNTZ6Ii8+JiN4YTsJPHBhdGggY2xhc3M9InN0MiIgZD0iTTE2LjcyIDEwLjc1bC0zLjI3IDIuMDEgMi42OSAxLjU1IDEuMTYtLjc2TDIwIDE1LjFsLS4wNS0yLjQ5ek0zLjg2IDE0LjMxbDIuNjktMS41NS0zLjI3LTIuMDEtMy4yMyAxLjg2TDAgMTUuMWwyLjctMS41NXoiLz4mI3hhOzwvc3ZnPg==;resizable=0;connectable=0;allowArrows=0;recursiveResize=0;expand=0;part=0;rotatable=0;cloneable=0;deletable=0;" vertex="1" parent="r7Uz0amz6yewWXryFc4E-120">
          <mxGeometry x="5" y="20" width="30" height="27.14" as="geometry" />
        </mxCell>
        <mxCell id="r7Uz0amz6yewWXryFc4E-130" style="edgeStyle=orthogonalEdgeStyle;rounded=0;orthogonalLoop=1;jettySize=auto;html=1;exitX=1;exitY=0.25;exitDx=0;exitDy=0;entryX=0;entryY=0.5;entryDx=0;entryDy=0;entryPerimeter=0;curved=1;" edge="1" parent="r7Uz0amz6yewWXryFc4E-110" source="r7Uz0amz6yewWXryFc4E-113" target="r7Uz0amz6yewWXryFc4E-120">
          <mxGeometry relative="1" as="geometry" />
        </mxCell>
        <mxCell id="r7Uz0amz6yewWXryFc4E-2" value="" style="shape=image;aspect=fixed;image=data:image/svg+xml,PHN2ZyBoZWlnaHQ9IjIwNiIgcHJlc2VydmVBc3BlY3RSYXRpbz0ieE1pZFlNaWQiIHZpZXdCb3g9IjAgMCAyNTYgMjA2IiB3aWR0aD0iMjU2IiB4bWxucz0iaHR0cDovL3d3dy53My5vcmcvMjAwMC9zdmciPjxwYXRoIGQ9Im0xNzAuMjUxNyA1Ni44MTg2IDIyLjI1My0yMi4yNTMgMS40ODMtOS4zN2MtNDAuNTUxLTM2Ljg3My0xMDUuMDEyLTMyLjY5Mi0xNDEuNTY3IDguNzI0LTEwLjE1NCAxMS41MDMtMTcuNjg3IDI1Ljg0NC0yMS43MDQgNDAuNjUzbDcuOTctMS4xMjMgNDQuNTA1LTcuMzM5IDMuNDM2LTMuNTE0YzE5Ljc5Ny0yMS43NDIgNTMuMjctMjQuNjY3IDc2LjEyOC02LjE2OHoiIGZpbGw9IiNlYTQzMzUiLz48cGF0aCBkPSJtMjI0LjIwNDggNzMuOTE4MmMtNS4xMTUtMTguODM2LTE1LjYxNi0zNS43NjktMzAuMjE3LTQ4LjcyMmwtMzEuMjMyIDMxLjIzMmMxMy4xODggMTAuNzc2IDIwLjcwMSAyNy4wMSAyMC4zNzkgNDQuMDM3djUuNTQ0YzE1LjM1MSAwIDI3Ljc5NyAxMi40NDUgMjcuNzk3IDI3Ljc5NiAwIDE1LjM1Mi0xMi40NDYgMjcuNDg1LTI3Ljc5NyAyNy40ODVoLTU1LjY3MWwtNS40NjYgNS45MzR2MzMuMzRsNS40NjYgNS4yMzFoNTUuNjcxYzM5LjkzLjMxMSA3Mi41NTItMzEuNDk0IDcyLjg2My03MS40MjQuMTg4LTI0LjIwMy0xMS43NDUtNDYuODkzLTMxLjc5My02MC40NTMiIGZpbGw9IiM0Mjg1ZjQiLz48cGF0aCBkPSJtNzEuODcwNCAyMDUuNzk1N2g1NS41OTN2LTQ0LjUwNmgtNTUuNTkzYy0zLjk2MS0uMDAxLTcuNzk3LS44NTItMTEuMzk5LTIuNDk4bC03Ljg4NyAyLjQyLTIyLjQwOSAyMi4yNTMtMS45NTIgNy41NzRjMTIuNTY3IDkuNDg5IDI3LjkgMTQuODI1IDQzLjY0NyAxNC43NTciIGZpbGw9IiMzNGE4NTMiLz48cGF0aCBkPSJtNzEuODcwNCA2MS40MjU1Yy0zOS45MzEuMjM4LTcyLjEwNyAzMi44MDItNzEuODY5IDcyLjczMi4xMzMgMjIuMjk4IDEwLjU0NyA0My4yODggMjguMjIyIDU2Ljg4MWwzMi4yNDgtMzIuMjQ3Yy0xMy45OTEtNi4zMjEtMjAuMjA4LTIyLjc4Ni0xMy44ODctMzYuNzc2IDYuMzItMTMuOTkgMjIuNzg2LTIwLjIwNyAzNi43NzUtMTMuODg3IDYuMTY1IDIuNzg1IDExLjEwMiA3LjcyMyAxMy44ODcgMTMuODg3bDMyLjI0OC0zMi4yNDdjLTEzLjcyMS0xNy45MzctMzUuMDQxLTI4LjQyNC01Ny42MjQtMjguMzQzIiBmaWxsPSIjZmJiYzA1Ii8+PC9zdmc+;movable=0;" vertex="1" parent="r7Uz0amz6yewWXryFc4E-1">
          <mxGeometry x="5" y="5" width="19.88" height="16" as="geometry" />
        </mxCell>
        <mxCell id="r7Uz0amz6yewWXryFc4E-4" value="Core Communications (GCP)" style="rounded=1;whiteSpace=wrap;html=1;strokeWidth=2;container=1;collapsible=0;recursiveResize=0;fillColor=#f5f5f5;strokeColor=#666666;dropTarget=1;dashed=1;shadow=1;arcSize=2;verticalAlign=top;align=left;spacingLeft=27;fontColor=#333333;" vertex="1" parent="r7Uz0amz6yewWXryFc4E-1">
          <mxGeometry x="430" y="340" width="730" height="460" as="geometry" />
        </mxCell>
        <mxCell id="r7Uz0amz6yewWXryFc4E-5" value="" style="shape=image;aspect=fixed;image=data:image/svg+xml,PHN2ZyBoZWlnaHQ9IjIwNiIgcHJlc2VydmVBc3BlY3RSYXRpbz0ieE1pZFlNaWQiIHZpZXdCb3g9IjAgMCAyNTYgMjA2IiB3aWR0aD0iMjU2IiB4bWxucz0iaHR0cDovL3d3dy53My5vcmcvMjAwMC9zdmciPjxwYXRoIGQ9Im0xNzAuMjUxNyA1Ni44MTg2IDIyLjI1My0yMi4yNTMgMS40ODMtOS4zN2MtNDAuNTUxLTM2Ljg3My0xMDUuMDEyLTMyLjY5Mi0xNDEuNTY3IDguNzI0LTEwLjE1NCAxMS41MDMtMTcuNjg3IDI1Ljg0NC0yMS43MDQgNDAuNjUzbDcuOTctMS4xMjMgNDQuNTA1LTcuMzM5IDMuNDM2LTMuNTE0YzE5Ljc5Ny0yMS43NDIgNTMuMjctMjQuNjY3IDc2LjEyOC02LjE2OHoiIGZpbGw9IiNlYTQzMzUiLz48cGF0aCBkPSJtMjI0LjIwNDggNzMuOTE4MmMtNS4xMTUtMTguODM2LTE1LjYxNi0zNS43NjktMzAuMjE3LTQ4LjcyMmwtMzEuMjMyIDMxLjIzMmMxMy4xODggMTAuNzc2IDIwLjcwMSAyNy4wMSAyMC4zNzkgNDQuMDM3djUuNTQ0YzE1LjM1MSAwIDI3Ljc5NyAxMi40NDUgMjcuNzk3IDI3Ljc5NiAwIDE1LjM1Mi0xMi40NDYgMjcuNDg1LTI3Ljc5NyAyNy40ODVoLTU1LjY3MWwtNS40NjYgNS45MzR2MzMuMzRsNS40NjYgNS4yMzFoNTUuNjcxYzM5LjkzLjMxMSA3Mi41NTItMzEuNDk0IDcyLjg2My03MS40MjQuMTg4LTI0LjIwMy0xMS43NDUtNDYuODkzLTMxLjc5My02MC40NTMiIGZpbGw9IiM0Mjg1ZjQiLz48cGF0aCBkPSJtNzEuODcwNCAyMDUuNzk1N2g1NS41OTN2LTQ0LjUwNmgtNTUuNTkzYy0zLjk2MS0uMDAxLTcuNzk3LS44NTItMTEuMzk5LTIuNDk4bC03Ljg4NyAyLjQyLTIyLjQwOSAyMi4yNTMtMS45NTIgNy41NzRjMTIuNTY3IDkuNDg5IDI3LjkgMTQuODI1IDQzLjY0NyAxNC43NTciIGZpbGw9IiMzNGE4NTMiLz48cGF0aCBkPSJtNzEuODcwNCA2MS40MjU1Yy0zOS45MzEuMjM4LTcyLjEwNyAzMi44MDItNzEuODY5IDcyLjczMi4xMzMgMjIuMjk4IDEwLjU0NyA0My4yODggMjguMjIyIDU2Ljg4MWwzMi4yNDgtMzIuMjQ3Yy0xMy45OTEtNi4zMjEtMjAuMjA4LTIyLjc4Ni0xMy44ODctMzYuNzc2IDYuMzItMTMuOTkgMjIuNzg2LTIwLjIwNyAzNi43NzUtMTMuODg3IDYuMTY1IDIuNzg1IDExLjEwMiA3LjcyMyAxMy44ODcgMTMuODg3bDMyLjI0OC0zMi4yNDdjLTEzLjcyMS0xNy45MzctMzUuMDQxLTI4LjQyNC01Ny42MjQtMjguMzQzIiBmaWxsPSIjZmJiYzA1Ii8+PC9zdmc+;movable=0;" vertex="1" parent="r7Uz0amz6yewWXryFc4E-4">
          <mxGeometry x="5" y="5" width="19.88" height="16" as="geometry" />
        </mxCell>
        <mxCell id="r7Uz0amz6yewWXryFc4E-134" style="edgeStyle=orthogonalEdgeStyle;rounded=0;orthogonalLoop=1;jettySize=auto;html=1;exitX=0.5;exitY=1;exitDx=0;exitDy=0;entryX=0.5;entryY=0;entryDx=0;entryDy=0;fillColor=#dae8fc;strokeColor=#6c8ebf;strokeWidth=2;" edge="1" parent="r7Uz0amz6yewWXryFc4E-4" source="r7Uz0amz6yewWXryFc4E-107" target="r7Uz0amz6yewWXryFc4E-7">
          <mxGeometry relative="1" as="geometry" />
        </mxCell>
        <mxCell id="r7Uz0amz6yewWXryFc4E-107" value="Opt change&#xa;event consumer" style="strokeColor=#6c8ebf;shadow=1;strokeWidth=2;rounded=1;absoluteArcSize=1;arcSize=2;fillColor=#dae8fc;spacingTop=10;spacingLeft=28;dropTarget=0;" vertex="1" parent="r7Uz0amz6yewWXryFc4E-4">
          <mxGeometry x="510" y="40" width="160" height="50" as="geometry" />
        </mxCell>
        <mxCell id="r7Uz0amz6yewWXryFc4E-108" value="Cloud Run" style="editableCssRules=.*;html=1;fontColor=#999999;shape=image;verticalLabelPosition=middle;verticalAlign=top;labelPosition=right;align=left;spacingLeft=5;part=1;points=[];imageAspect=0;image=data:image/svg+xml,PHN2ZyB4bWxucz0iaHR0cDovL3d3dy53My5vcmcvMjAwMC9zdmciIHhtbG5zOnY9Imh0dHBzOi8vdmVjdGEuaW8vbmFubyIgd2lkdGg9IjM2NS40NjQ5OTY3NzA0MjQ5MyIgaGVpZ2h0PSIzNzkuMjIyOTk0NDYzNTc3OTUiIHZpZXdCb3g9IjAgMCA5Ni42OTU5OTkxNDU1MDc4MSAxMDAuMzM1OTk4NTM1MTU2MjUiPiYjeGE7PHN0eWxlIHR5cGU9InRleHQvY3NzIj4mI3hhOwkuc3Qwe2ZpbGw6IzQyODVmNDt9JiN4YTsJLnN0MXtmaWxsOiNhZWNiZmE7fSYjeGE7PC9zdHlsZT4mI3hhOwk8cGF0aCBjbGFzcz0ic3QwIiBkPSJNMjkuNzk0IDEwMC4zMzZMNDYuOTIgNTAuMTY4aDQ5Ljc3NnpNMCA5OS42NzFsMTIuOTc2LTQ5LjUwMkgyOS4yMkwxNi44OTcgOTIuMDU0eiIvPiYjeGE7CTxwYXRoIGNsYXNzPSJzdDEiIGQ9Ik0yOS43OTQgMEw0Ni45MiA1MC4xNjhoNDkuNzc2ek0wIC42NjZsMTIuOTc2IDQ5LjUwMkgyOS4yMkwxNi44OTcgOC4yODN6Ii8+JiN4YTs8L3N2Zz4=;spacingTop=-7;spacing=0;connectable=0;allowArrows=0;" vertex="1" parent="r7Uz0amz6yewWXryFc4E-107">
          <mxGeometry width="30" height="30" relative="1" as="geometry">
            <mxPoint x="5" y="5" as="offset" />
          </mxGeometry>
        </mxCell>
        <mxCell id="r7Uz0amz6yewWXryFc4E-109" value="BS" style="text;html=1;align=right;verticalAlign=top;whiteSpace=wrap;rounded=0;spacing=4;spacingTop=-6;fontColor=#999999;connectable=0;allowArrows=0;" vertex="1" parent="r7Uz0amz6yewWXryFc4E-107">
          <mxGeometry x="138" width="22" height="18.75" as="geometry" />
        </mxCell>
        <mxCell id="r7Uz0amz6yewWXryFc4E-7" value="Core BS (Send Event)" style="strokeColor=#666666;shadow=1;strokeWidth=2;rounded=1;absoluteArcSize=1;arcSize=2;fillColor=#f5f5f5;fontColor=#333333;spacingTop=10;spacingLeft=28;dropTarget=0;" vertex="1" parent="r7Uz0amz6yewWXryFc4E-4">
          <mxGeometry x="26.880000000000003" y="210.0000000000001" width="160" height="40" as="geometry" />
        </mxCell>
        <mxCell id="r7Uz0amz6yewWXryFc4E-8" value="Cloud Run" style="editableCssRules=.*;html=1;fontColor=#999999;shape=image;verticalLabelPosition=middle;verticalAlign=top;labelPosition=right;align=left;spacingLeft=5;part=1;points=[];imageAspect=0;image=data:image/svg+xml,PHN2ZyB4bWxucz0iaHR0cDovL3d3dy53My5vcmcvMjAwMC9zdmciIHhtbG5zOnY9Imh0dHBzOi8vdmVjdGEuaW8vbmFubyIgd2lkdGg9IjM2NS40NjQ5OTY3NzA0MjQ5MyIgaGVpZ2h0PSIzNzkuMjIyOTk0NDYzNTc3OTUiIHZpZXdCb3g9IjAgMCA5Ni42OTU5OTkxNDU1MDc4MSAxMDAuMzM1OTk4NTM1MTU2MjUiPiYjeGE7PHN0eWxlIHR5cGU9InRleHQvY3NzIj4mI3hhOwkuc3Qwe2ZpbGw6IzQyODVmNDt9JiN4YTsJLnN0MXtmaWxsOiNhZWNiZmE7fSYjeGE7PC9zdHlsZT4mI3hhOwk8cGF0aCBjbGFzcz0ic3QwIiBkPSJNMjkuNzk0IDEwMC4zMzZMNDYuOTIgNTAuMTY4aDQ5Ljc3NnpNMCA5OS42NzFsMTIuOTc2LTQ5LjUwMkgyOS4yMkwxNi44OTcgOTIuMDU0eiIvPiYjeGE7CTxwYXRoIGNsYXNzPSJzdDEiIGQ9Ik0yOS43OTQgMEw0Ni45MiA1MC4xNjhoNDkuNzc2ek0wIC42NjZsMTIuOTc2IDQ5LjUwMkgyOS4yMkwxNi44OTcgOC4yODN6Ii8+JiN4YTs8L3N2Zz4=;spacingTop=-7;spacing=0;connectable=0;allowArrows=0;" vertex="1" parent="r7Uz0amz6yewWXryFc4E-7">
          <mxGeometry width="30" height="30" relative="1" as="geometry">
            <mxPoint x="5" y="5" as="offset" />
          </mxGeometry>
        </mxCell>
        <mxCell id="r7Uz0amz6yewWXryFc4E-9" value="BS" style="text;html=1;align=right;verticalAlign=top;whiteSpace=wrap;rounded=0;spacing=4;spacingTop=-6;fontColor=#999999;connectable=0;allowArrows=0;" vertex="1" parent="r7Uz0amz6yewWXryFc4E-7">
          <mxGeometry x="138" width="22" height="15" as="geometry" />
        </mxCell>
        <mxCell id="r7Uz0amz6yewWXryFc4E-44" style="edgeStyle=orthogonalEdgeStyle;rounded=0;orthogonalLoop=1;jettySize=auto;html=1;exitX=1;exitY=0.5;exitDx=0;exitDy=0;exitPerimeter=0;fillColor=#d5e8d4;strokeColor=#82b366;strokeWidth=2;" edge="1" parent="r7Uz0amz6yewWXryFc4E-4" source="r7Uz0amz6yewWXryFc4E-10" target="r7Uz0amz6yewWXryFc4E-20">
          <mxGeometry relative="1" as="geometry" />
        </mxCell>
        <mxCell id="r7Uz0amz6yewWXryFc4E-10" value="Act-on" style="strokeWidth=2;html=1;shape=stencil(zVbBcsIgEP0ajulgqGM9dqK9tZcePK8RlREhA1Tt35eEZDQmcXDrTHtj3w7v7bIPBsIyu4WCk5Qq2HPCZiRNZ8Lw3HloBg587FfbkElpCI8hfKlDsEW5ocIOYAQsJQ8Z64ze8aNYuZpBqC03wpVZNif0lZSUlLAs10p5EqGVbWUu8p4MhCoLOwUy+kTHQee7BkJUeIk9d9y00HODH4uAkPTtDi2cFEZp+oySmqO0pm2tp3QcK/d+v97oSixS6zGdTSLVPjGddaY2ihX7vRdjpTBKFCeFumH02h7RE1tgJobz4mM6i75lQ52xzCNDjybLlpDvNkZ/qVVvlQWUD3In0aT3+sDP5fc+fP39NwRSqAuCCYIBTO4Xpl2CaVxYU5wSOAmbGO2gPIQWvQSz4YmnSdYSNi332iPnRRfurxbTMIbh7xpGTCeX2vIbt8DjHYtV6IAvWbbWht8w7FpIGT4TN1TvcvV/NyUlaFP2n3+TGzzGaltnDhUaPokV8AM=);whiteSpace=wrap;fillColor=#d5e8d4;strokeColor=#82b366;container=0;collapsible=0;recursiveResize=1;dropTarget=1;spacingRight=24;shadow=1;spacingTop=10;spacingLeft=28;align=center;" vertex="1" parent="r7Uz0amz6yewWXryFc4E-4">
          <mxGeometry x="272.38" y="210" width="160" height="40" as="geometry" />
        </mxCell>
        <mxCell id="r7Uz0amz6yewWXryFc4E-11" value="Pub/Sub" style="editableCssRules=.*;html=1;fontColor=#999999;shape=image;verticalLabelPosition=middle;verticalAlign=top;labelPosition=right;align=left;spacingLeft=5;part=1;points=[];imageAspect=0;image=data:image/svg+xml,PHN2ZyB4bWxucz0iaHR0cDovL3d3dy53My5vcmcvMjAwMC9zdmciIHhtbG5zOnY9Imh0dHBzOi8vdmVjdGEuaW8vbmFubyIgd2lkdGg9IjE4LjMxOTk5OTY5NDgyNDIyIiBoZWlnaHQ9IjIwLjAwMDAwMTkwNzM0ODYzMyIgdmlld0JveD0iMCAwIDE4LjMxOTk5OTY5NDgyNDIyIDIwLjAwMDAwMTkwNzM0ODYzMyI+JiN4YTsJPHN0eWxlIHR5cGU9InRleHQvY3NzIj4mI3hhOwkuc3Qwe2ZpbGw6IzY2OWRmNjt9JiN4YTsJLnN0MXtmaWxsOiM0Mjg1ZjQ7fSYjeGE7CS5zdDJ7ZmlsbDojYWVjYmZhO30mI3hhOwk8L3N0eWxlPiYjeGE7CTxkZWZzPiYjeGE7CQk8ZmlsdGVyIGlkPSJBIiB4PSI0LjY0IiB5PSI0LjE5IiB3aWR0aD0iMTQuNzMiIGhlaWdodD0iMTIuNzYiIGZpbHRlclVuaXRzPSJ1c2VyU3BhY2VPblVzZSIgY29sb3ItaW50ZXJwb2xhdGlvbi1maWx0ZXJzPSJzUkdCIj4mI3hhOwkJCTxmZUZsb29kIGZsb29kLWNvbG9yPSIjZmZmIi8+JiN4YTsJCQk8ZmVCbGVuZCBpbj0iU291cmNlR3JhcGhpYyIvPiYjeGE7CQk8L2ZpbHRlcj4mI3hhOwkJPG1hc2sgaWQ9IkIiIHg9IjQuNjQiIHk9IjQuMTkiIHdpZHRoPSIxNC43MyIgaGVpZ2h0PSIxMi43NiIgbWFza1VuaXRzPSJ1c2VyU3BhY2VPblVzZSI+JiN4YTsJCQk8Y2lyY2xlIGN4PSIxMiIgY3k9IjEyLjIzIiByPSIzLjU4IiBmaWx0ZXI9InVybCgjQSkiLz4mI3hhOwkJPC9tYXNrPiYjeGE7CTwvZGVmcz4mI3hhOwk8ZyBjbGFzcz0ic3QwIj4mI3hhOwkJPGNpcmNsZSBjeD0iMTYuMTMiIGN5PSI2LjIxIiByPSIxLjcyIi8+JiN4YTsJCTxjaXJjbGUgY3g9IjIuMTkiIGN5PSI2LjIxIiByPSIxLjcyIi8+JiN4YTsJCTxjaXJjbGUgY3g9IjkuMTYiIGN5PSIxOC4yOCIgcj0iMS43MiIvPiYjeGE7CTwvZz4mI3hhOwk8ZyBtYXNrPSJ1cmwoI0IpIiB0cmFuc2Zvcm09InRyYW5zbGF0ZSgtMi44NCAtMikiPiYjeGE7CQk8cGF0aCB0cmFuc2Zvcm09Im1hdHJpeCguNSAtLjg3IC44NyAuNSAtNC41OSAyMC41MykiIGQ9Ik0xNC42OSAxMC4yMmgxLjU5djguMDRoLTEuNTl6IiBjbGFzcz0ic3QxIi8+JiN4YTsJCTxwYXRoIHRyYW5zZm9ybT0icm90YXRlKDMzMCA4LjUyMyAxNC4yNDQpIiBkPSJNNC40OSAxMy40NWg4LjA0djEuNTlINC40OXoiIGNsYXNzPSJzdDEiLz4mI3hhOwkJPHBhdGggZD0iTTExLjIgNC4xOWgxLjU5djguMDRIMTEuMnoiIGNsYXNzPSJzdDEiLz4mI3hhOwk8L2c+JiN4YTsJPGcgY2xhc3M9InN0MiI+JiN4YTsJCTxjaXJjbGUgY3g9IjkuMTYiIGN5PSIxMC4yMyIgcj0iMi43OCIvPiYjeGE7CQk8Y2lyY2xlIGN4PSIyLjE5IiBjeT0iMTQuMjUiIHI9IjIuMTkiLz4mI3hhOwkJPGNpcmNsZSBjeD0iMTYuMTMiIGN5PSIxNC4yNSIgcj0iMi4xOSIvPiYjeGE7CQk8Y2lyY2xlIGN4PSI5LjE2IiBjeT0iMi4xOSIgcj0iMi4xOSIvPiYjeGE7CTwvZz4mI3hhOzwvc3ZnPg==;spacingTop=-7;spacing=0;resizeWidth=0;resizable=0;perimeterSpacing=0;connectable=0;allowArrows=0;" vertex="1" parent="r7Uz0amz6yewWXryFc4E-10">
          <mxGeometry x="5" y="5" width="27" height="30" as="geometry" />
        </mxCell>
        <mxCell id="r7Uz0amz6yewWXryFc4E-45" style="edgeStyle=orthogonalEdgeStyle;rounded=0;orthogonalLoop=1;jettySize=auto;html=1;exitX=1;exitY=0.5;exitDx=0;exitDy=0;exitPerimeter=0;entryX=0;entryY=0.5;entryDx=0;entryDy=0;fillColor=#d5e8d4;strokeColor=#82b366;strokeWidth=2;" edge="1" parent="r7Uz0amz6yewWXryFc4E-4" source="r7Uz0amz6yewWXryFc4E-14" target="r7Uz0amz6yewWXryFc4E-23">
          <mxGeometry relative="1" as="geometry" />
        </mxCell>
        <mxCell id="r7Uz0amz6yewWXryFc4E-14" value="SMTP" style="strokeWidth=2;html=1;shape=stencil(zVbBcsIgEP0ajulgqGM9dqK9tZcePK8RlREhA1Tt35eEZDQmcXDrTHtj3w7v7bIPBsIyu4WCk5Qq2HPCZiRNZ8Lw3HloBg587FfbkElpCI8hfKlDsEW5ocIOYAQsJQ8Z64ze8aNYuZpBqC03wpVZNif0lZSUlLAs10p5EqGVbWUu8p4MhCoLOwUy+kTHQee7BkJUeIk9d9y00HODH4uAkPTtDi2cFEZp+oySmqO0pm2tp3QcK/d+v97oSixS6zGdTSLVPjGddaY2ihX7vRdjpTBKFCeFumH02h7RE1tgJobz4mM6i75lQ52xzCNDjybLlpDvNkZ/qVVvlQWUD3In0aT3+sDP5fc+fP39NwRSqAuCCYIBTO4Xpl2CaVxYU5wSOAmbGO2gPIQWvQSz4YmnSdYSNi332iPnRRfurxbTMIbh7xpGTCeX2vIbt8DjHYtV6IAvWbbWht8w7FpIGT4TN1TvcvV/NyUlaFP2n3+TGzzGaltnDhUaPokV8AM=);whiteSpace=wrap;fillColor=#d5e8d4;strokeColor=#82b366;container=0;collapsible=0;recursiveResize=1;dropTarget=1;spacingRight=24;shadow=1;spacingTop=10;spacingLeft=28;align=center;" vertex="1" parent="r7Uz0amz6yewWXryFc4E-4">
          <mxGeometry x="272.38" y="260" width="160" height="40" as="geometry" />
        </mxCell>
        <mxCell id="r7Uz0amz6yewWXryFc4E-15" value="Pub/Sub" style="editableCssRules=.*;html=1;fontColor=#999999;shape=image;verticalLabelPosition=middle;verticalAlign=top;labelPosition=right;align=left;spacingLeft=5;part=1;points=[];imageAspect=0;image=data:image/svg+xml,PHN2ZyB4bWxucz0iaHR0cDovL3d3dy53My5vcmcvMjAwMC9zdmciIHhtbG5zOnY9Imh0dHBzOi8vdmVjdGEuaW8vbmFubyIgd2lkdGg9IjE4LjMxOTk5OTY5NDgyNDIyIiBoZWlnaHQ9IjIwLjAwMDAwMTkwNzM0ODYzMyIgdmlld0JveD0iMCAwIDE4LjMxOTk5OTY5NDgyNDIyIDIwLjAwMDAwMTkwNzM0ODYzMyI+JiN4YTsJPHN0eWxlIHR5cGU9InRleHQvY3NzIj4mI3hhOwkuc3Qwe2ZpbGw6IzY2OWRmNjt9JiN4YTsJLnN0MXtmaWxsOiM0Mjg1ZjQ7fSYjeGE7CS5zdDJ7ZmlsbDojYWVjYmZhO30mI3hhOwk8L3N0eWxlPiYjeGE7CTxkZWZzPiYjeGE7CQk8ZmlsdGVyIGlkPSJBIiB4PSI0LjY0IiB5PSI0LjE5IiB3aWR0aD0iMTQuNzMiIGhlaWdodD0iMTIuNzYiIGZpbHRlclVuaXRzPSJ1c2VyU3BhY2VPblVzZSIgY29sb3ItaW50ZXJwb2xhdGlvbi1maWx0ZXJzPSJzUkdCIj4mI3hhOwkJCTxmZUZsb29kIGZsb29kLWNvbG9yPSIjZmZmIi8+JiN4YTsJCQk8ZmVCbGVuZCBpbj0iU291cmNlR3JhcGhpYyIvPiYjeGE7CQk8L2ZpbHRlcj4mI3hhOwkJPG1hc2sgaWQ9IkIiIHg9IjQuNjQiIHk9IjQuMTkiIHdpZHRoPSIxNC43MyIgaGVpZ2h0PSIxMi43NiIgbWFza1VuaXRzPSJ1c2VyU3BhY2VPblVzZSI+JiN4YTsJCQk8Y2lyY2xlIGN4PSIxMiIgY3k9IjEyLjIzIiByPSIzLjU4IiBmaWx0ZXI9InVybCgjQSkiLz4mI3hhOwkJPC9tYXNrPiYjeGE7CTwvZGVmcz4mI3hhOwk8ZyBjbGFzcz0ic3QwIj4mI3hhOwkJPGNpcmNsZSBjeD0iMTYuMTMiIGN5PSI2LjIxIiByPSIxLjcyIi8+JiN4YTsJCTxjaXJjbGUgY3g9IjIuMTkiIGN5PSI2LjIxIiByPSIxLjcyIi8+JiN4YTsJCTxjaXJjbGUgY3g9IjkuMTYiIGN5PSIxOC4yOCIgcj0iMS43MiIvPiYjeGE7CTwvZz4mI3hhOwk8ZyBtYXNrPSJ1cmwoI0IpIiB0cmFuc2Zvcm09InRyYW5zbGF0ZSgtMi44NCAtMikiPiYjeGE7CQk8cGF0aCB0cmFuc2Zvcm09Im1hdHJpeCguNSAtLjg3IC44NyAuNSAtNC41OSAyMC41MykiIGQ9Ik0xNC42OSAxMC4yMmgxLjU5djguMDRoLTEuNTl6IiBjbGFzcz0ic3QxIi8+JiN4YTsJCTxwYXRoIHRyYW5zZm9ybT0icm90YXRlKDMzMCA4LjUyMyAxNC4yNDQpIiBkPSJNNC40OSAxMy40NWg4LjA0djEuNTlINC40OXoiIGNsYXNzPSJzdDEiLz4mI3hhOwkJPHBhdGggZD0iTTExLjIgNC4xOWgxLjU5djguMDRIMTEuMnoiIGNsYXNzPSJzdDEiLz4mI3hhOwk8L2c+JiN4YTsJPGcgY2xhc3M9InN0MiI+JiN4YTsJCTxjaXJjbGUgY3g9IjkuMTYiIGN5PSIxMC4yMyIgcj0iMi43OCIvPiYjeGE7CQk8Y2lyY2xlIGN4PSIyLjE5IiBjeT0iMTQuMjUiIHI9IjIuMTkiLz4mI3hhOwkJPGNpcmNsZSBjeD0iMTYuMTMiIGN5PSIxNC4yNSIgcj0iMi4xOSIvPiYjeGE7CQk8Y2lyY2xlIGN4PSI5LjE2IiBjeT0iMi4xOSIgcj0iMi4xOSIvPiYjeGE7CTwvZz4mI3hhOzwvc3ZnPg==;spacingTop=-7;spacing=0;resizeWidth=0;resizable=0;perimeterSpacing=0;connectable=0;allowArrows=0;" vertex="1" parent="r7Uz0amz6yewWXryFc4E-14">
          <mxGeometry x="5" y="5" width="27" height="30" as="geometry" />
        </mxCell>
        <mxCell id="r7Uz0amz6yewWXryFc4E-46" style="edgeStyle=orthogonalEdgeStyle;rounded=0;orthogonalLoop=1;jettySize=auto;html=1;exitX=1;exitY=0.5;exitDx=0;exitDy=0;exitPerimeter=0;entryX=0;entryY=0.5;entryDx=0;entryDy=0;" edge="1" parent="r7Uz0amz6yewWXryFc4E-4" source="r7Uz0amz6yewWXryFc4E-16" target="r7Uz0amz6yewWXryFc4E-26">
          <mxGeometry relative="1" as="geometry" />
        </mxCell>
        <mxCell id="r7Uz0amz6yewWXryFc4E-16" value="PCM" style="strokeWidth=2;html=1;shape=stencil(zVbBcsIgEP0ajulgqGM9dqK9tZcePK8RlREhA1Tt35eEZDQmcXDrTHtj3w7v7bIPBsIyu4WCk5Qq2HPCZiRNZ8Lw3HloBg587FfbkElpCI8hfKlDsEW5ocIOYAQsJQ8Z64ze8aNYuZpBqC03wpVZNif0lZSUlLAs10p5EqGVbWUu8p4MhCoLOwUy+kTHQee7BkJUeIk9d9y00HODH4uAkPTtDi2cFEZp+oySmqO0pm2tp3QcK/d+v97oSixS6zGdTSLVPjGddaY2ihX7vRdjpTBKFCeFumH02h7RE1tgJobz4mM6i75lQ52xzCNDjybLlpDvNkZ/qVVvlQWUD3In0aT3+sDP5fc+fP39NwRSqAuCCYIBTO4Xpl2CaVxYU5wSOAmbGO2gPIQWvQSz4YmnSdYSNi332iPnRRfurxbTMIbh7xpGTCeX2vIbt8DjHYtV6IAvWbbWht8w7FpIGT4TN1TvcvV/NyUlaFP2n3+TGzzGaltnDhUaPokV8AM=);whiteSpace=wrap;fillColor=#f5f5f5;container=0;collapsible=0;recursiveResize=1;dropTarget=1;spacingRight=24;shadow=1;spacingTop=10;spacingLeft=28;align=center;strokeColor=#666666;fontColor=#333333;" vertex="1" parent="r7Uz0amz6yewWXryFc4E-4">
          <mxGeometry x="272.38" y="310" width="160" height="40" as="geometry" />
        </mxCell>
        <mxCell id="r7Uz0amz6yewWXryFc4E-17" value="Pub/Sub" style="editableCssRules=.*;html=1;fontColor=#999999;shape=image;verticalLabelPosition=middle;verticalAlign=top;labelPosition=right;align=left;spacingLeft=5;part=1;points=[];imageAspect=0;image=data:image/svg+xml,PHN2ZyB4bWxucz0iaHR0cDovL3d3dy53My5vcmcvMjAwMC9zdmciIHhtbG5zOnY9Imh0dHBzOi8vdmVjdGEuaW8vbmFubyIgd2lkdGg9IjE4LjMxOTk5OTY5NDgyNDIyIiBoZWlnaHQ9IjIwLjAwMDAwMTkwNzM0ODYzMyIgdmlld0JveD0iMCAwIDE4LjMxOTk5OTY5NDgyNDIyIDIwLjAwMDAwMTkwNzM0ODYzMyI+JiN4YTsJPHN0eWxlIHR5cGU9InRleHQvY3NzIj4mI3hhOwkuc3Qwe2ZpbGw6IzY2OWRmNjt9JiN4YTsJLnN0MXtmaWxsOiM0Mjg1ZjQ7fSYjeGE7CS5zdDJ7ZmlsbDojYWVjYmZhO30mI3hhOwk8L3N0eWxlPiYjeGE7CTxkZWZzPiYjeGE7CQk8ZmlsdGVyIGlkPSJBIiB4PSI0LjY0IiB5PSI0LjE5IiB3aWR0aD0iMTQuNzMiIGhlaWdodD0iMTIuNzYiIGZpbHRlclVuaXRzPSJ1c2VyU3BhY2VPblVzZSIgY29sb3ItaW50ZXJwb2xhdGlvbi1maWx0ZXJzPSJzUkdCIj4mI3hhOwkJCTxmZUZsb29kIGZsb29kLWNvbG9yPSIjZmZmIi8+JiN4YTsJCQk8ZmVCbGVuZCBpbj0iU291cmNlR3JhcGhpYyIvPiYjeGE7CQk8L2ZpbHRlcj4mI3hhOwkJPG1hc2sgaWQ9IkIiIHg9IjQuNjQiIHk9IjQuMTkiIHdpZHRoPSIxNC43MyIgaGVpZ2h0PSIxMi43NiIgbWFza1VuaXRzPSJ1c2VyU3BhY2VPblVzZSI+JiN4YTsJCQk8Y2lyY2xlIGN4PSIxMiIgY3k9IjEyLjIzIiByPSIzLjU4IiBmaWx0ZXI9InVybCgjQSkiLz4mI3hhOwkJPC9tYXNrPiYjeGE7CTwvZGVmcz4mI3hhOwk8ZyBjbGFzcz0ic3QwIj4mI3hhOwkJPGNpcmNsZSBjeD0iMTYuMTMiIGN5PSI2LjIxIiByPSIxLjcyIi8+JiN4YTsJCTxjaXJjbGUgY3g9IjIuMTkiIGN5PSI2LjIxIiByPSIxLjcyIi8+JiN4YTsJCTxjaXJjbGUgY3g9IjkuMTYiIGN5PSIxOC4yOCIgcj0iMS43MiIvPiYjeGE7CTwvZz4mI3hhOwk8ZyBtYXNrPSJ1cmwoI0IpIiB0cmFuc2Zvcm09InRyYW5zbGF0ZSgtMi44NCAtMikiPiYjeGE7CQk8cGF0aCB0cmFuc2Zvcm09Im1hdHJpeCguNSAtLjg3IC44NyAuNSAtNC41OSAyMC41MykiIGQ9Ik0xNC42OSAxMC4yMmgxLjU5djguMDRoLTEuNTl6IiBjbGFzcz0ic3QxIi8+JiN4YTsJCTxwYXRoIHRyYW5zZm9ybT0icm90YXRlKDMzMCA4LjUyMyAxNC4yNDQpIiBkPSJNNC40OSAxMy40NWg4LjA0djEuNTlINC40OXoiIGNsYXNzPSJzdDEiLz4mI3hhOwkJPHBhdGggZD0iTTExLjIgNC4xOWgxLjU5djguMDRIMTEuMnoiIGNsYXNzPSJzdDEiLz4mI3hhOwk8L2c+JiN4YTsJPGcgY2xhc3M9InN0MiI+JiN4YTsJCTxjaXJjbGUgY3g9IjkuMTYiIGN5PSIxMC4yMyIgcj0iMi43OCIvPiYjeGE7CQk8Y2lyY2xlIGN4PSIyLjE5IiBjeT0iMTQuMjUiIHI9IjIuMTkiLz4mI3hhOwkJPGNpcmNsZSBjeD0iMTYuMTMiIGN5PSIxNC4yNSIgcj0iMi4xOSIvPiYjeGE7CQk8Y2lyY2xlIGN4PSI5LjE2IiBjeT0iMi4xOSIgcj0iMi4xOSIvPiYjeGE7CTwvZz4mI3hhOzwvc3ZnPg==;spacingTop=-7;spacing=0;resizeWidth=0;resizable=0;perimeterSpacing=0;connectable=0;allowArrows=0;" vertex="1" parent="r7Uz0amz6yewWXryFc4E-16">
          <mxGeometry x="5" y="5" width="27" height="30" as="geometry" />
        </mxCell>
        <mxCell id="r7Uz0amz6yewWXryFc4E-47" style="edgeStyle=orthogonalEdgeStyle;rounded=0;orthogonalLoop=1;jettySize=auto;html=1;exitX=1;exitY=0.5;exitDx=0;exitDy=0;exitPerimeter=0;" edge="1" parent="r7Uz0amz6yewWXryFc4E-4" source="r7Uz0amz6yewWXryFc4E-18" target="r7Uz0amz6yewWXryFc4E-29">
          <mxGeometry relative="1" as="geometry" />
        </mxCell>
        <mxCell id="r7Uz0amz6yewWXryFc4E-18" value="Kaleyra" style="strokeWidth=2;html=1;shape=stencil(zVbBcsIgEP0ajulgqGM9dqK9tZcePK8RlREhA1Tt35eEZDQmcXDrTHtj3w7v7bIPBsIyu4WCk5Qq2HPCZiRNZ8Lw3HloBg587FfbkElpCI8hfKlDsEW5ocIOYAQsJQ8Z64ze8aNYuZpBqC03wpVZNif0lZSUlLAs10p5EqGVbWUu8p4MhCoLOwUy+kTHQee7BkJUeIk9d9y00HODH4uAkPTtDi2cFEZp+oySmqO0pm2tp3QcK/d+v97oSixS6zGdTSLVPjGddaY2ihX7vRdjpTBKFCeFumH02h7RE1tgJobz4mM6i75lQ52xzCNDjybLlpDvNkZ/qVVvlQWUD3In0aT3+sDP5fc+fP39NwRSqAuCCYIBTO4Xpl2CaVxYU5wSOAmbGO2gPIQWvQSz4YmnSdYSNi332iPnRRfurxbTMIbh7xpGTCeX2vIbt8DjHYtV6IAvWbbWht8w7FpIGT4TN1TvcvV/NyUlaFP2n3+TGzzGaltnDhUaPokV8AM=);whiteSpace=wrap;fillColor=#f5f5f5;container=0;collapsible=0;recursiveResize=1;dropTarget=1;spacingRight=24;shadow=1;spacingTop=10;spacingLeft=28;align=center;strokeColor=#666666;fontColor=#333333;" vertex="1" parent="r7Uz0amz6yewWXryFc4E-4">
          <mxGeometry x="272.38" y="360" width="160" height="40" as="geometry" />
        </mxCell>
        <mxCell id="r7Uz0amz6yewWXryFc4E-19" value="Pub/Sub" style="editableCssRules=.*;html=1;fontColor=#999999;shape=image;verticalLabelPosition=middle;verticalAlign=top;labelPosition=right;align=left;spacingLeft=5;part=1;points=[];imageAspect=0;image=data:image/svg+xml,PHN2ZyB4bWxucz0iaHR0cDovL3d3dy53My5vcmcvMjAwMC9zdmciIHhtbG5zOnY9Imh0dHBzOi8vdmVjdGEuaW8vbmFubyIgd2lkdGg9IjE4LjMxOTk5OTY5NDgyNDIyIiBoZWlnaHQ9IjIwLjAwMDAwMTkwNzM0ODYzMyIgdmlld0JveD0iMCAwIDE4LjMxOTk5OTY5NDgyNDIyIDIwLjAwMDAwMTkwNzM0ODYzMyI+JiN4YTsJPHN0eWxlIHR5cGU9InRleHQvY3NzIj4mI3hhOwkuc3Qwe2ZpbGw6IzY2OWRmNjt9JiN4YTsJLnN0MXtmaWxsOiM0Mjg1ZjQ7fSYjeGE7CS5zdDJ7ZmlsbDojYWVjYmZhO30mI3hhOwk8L3N0eWxlPiYjeGE7CTxkZWZzPiYjeGE7CQk8ZmlsdGVyIGlkPSJBIiB4PSI0LjY0IiB5PSI0LjE5IiB3aWR0aD0iMTQuNzMiIGhlaWdodD0iMTIuNzYiIGZpbHRlclVuaXRzPSJ1c2VyU3BhY2VPblVzZSIgY29sb3ItaW50ZXJwb2xhdGlvbi1maWx0ZXJzPSJzUkdCIj4mI3hhOwkJCTxmZUZsb29kIGZsb29kLWNvbG9yPSIjZmZmIi8+JiN4YTsJCQk8ZmVCbGVuZCBpbj0iU291cmNlR3JhcGhpYyIvPiYjeGE7CQk8L2ZpbHRlcj4mI3hhOwkJPG1hc2sgaWQ9IkIiIHg9IjQuNjQiIHk9IjQuMTkiIHdpZHRoPSIxNC43MyIgaGVpZ2h0PSIxMi43NiIgbWFza1VuaXRzPSJ1c2VyU3BhY2VPblVzZSI+JiN4YTsJCQk8Y2lyY2xlIGN4PSIxMiIgY3k9IjEyLjIzIiByPSIzLjU4IiBmaWx0ZXI9InVybCgjQSkiLz4mI3hhOwkJPC9tYXNrPiYjeGE7CTwvZGVmcz4mI3hhOwk8ZyBjbGFzcz0ic3QwIj4mI3hhOwkJPGNpcmNsZSBjeD0iMTYuMTMiIGN5PSI2LjIxIiByPSIxLjcyIi8+JiN4YTsJCTxjaXJjbGUgY3g9IjIuMTkiIGN5PSI2LjIxIiByPSIxLjcyIi8+JiN4YTsJCTxjaXJjbGUgY3g9IjkuMTYiIGN5PSIxOC4yOCIgcj0iMS43MiIvPiYjeGE7CTwvZz4mI3hhOwk8ZyBtYXNrPSJ1cmwoI0IpIiB0cmFuc2Zvcm09InRyYW5zbGF0ZSgtMi44NCAtMikiPiYjeGE7CQk8cGF0aCB0cmFuc2Zvcm09Im1hdHJpeCguNSAtLjg3IC44NyAuNSAtNC41OSAyMC41MykiIGQ9Ik0xNC42OSAxMC4yMmgxLjU5djguMDRoLTEuNTl6IiBjbGFzcz0ic3QxIi8+JiN4YTsJCTxwYXRoIHRyYW5zZm9ybT0icm90YXRlKDMzMCA4LjUyMyAxNC4yNDQpIiBkPSJNNC40OSAxMy40NWg4LjA0djEuNTlINC40OXoiIGNsYXNzPSJzdDEiLz4mI3hhOwkJPHBhdGggZD0iTTExLjIgNC4xOWgxLjU5djguMDRIMTEuMnoiIGNsYXNzPSJzdDEiLz4mI3hhOwk8L2c+JiN4YTsJPGcgY2xhc3M9InN0MiI+JiN4YTsJCTxjaXJjbGUgY3g9IjkuMTYiIGN5PSIxMC4yMyIgcj0iMi43OCIvPiYjeGE7CQk8Y2lyY2xlIGN4PSIyLjE5IiBjeT0iMTQuMjUiIHI9IjIuMTkiLz4mI3hhOwkJPGNpcmNsZSBjeD0iMTYuMTMiIGN5PSIxNC4yNSIgcj0iMi4xOSIvPiYjeGE7CQk8Y2lyY2xlIGN4PSI5LjE2IiBjeT0iMi4xOSIgcj0iMi4xOSIvPiYjeGE7CTwvZz4mI3hhOzwvc3ZnPg==;spacingTop=-7;spacing=0;resizeWidth=0;resizable=0;perimeterSpacing=0;connectable=0;allowArrows=0;" vertex="1" parent="r7Uz0amz6yewWXryFc4E-18">
          <mxGeometry x="5" y="5" width="27" height="30" as="geometry" />
        </mxCell>
        <mxCell id="r7Uz0amz6yewWXryFc4E-20" value="Act-on consumer" style="strokeColor=#82b366;shadow=1;strokeWidth=2;rounded=1;absoluteArcSize=1;arcSize=2;fillColor=#d5e8d4;spacingTop=10;spacingLeft=28;dropTarget=0;" vertex="1" parent="r7Uz0amz6yewWXryFc4E-4">
          <mxGeometry x="472.38" y="210.0000000000001" width="160" height="40" as="geometry" />
        </mxCell>
        <mxCell id="r7Uz0amz6yewWXryFc4E-21" value="Cloud Run" style="editableCssRules=.*;html=1;fontColor=#999999;shape=image;verticalLabelPosition=middle;verticalAlign=top;labelPosition=right;align=left;spacingLeft=5;part=1;points=[];imageAspect=0;image=data:image/svg+xml,PHN2ZyB4bWxucz0iaHR0cDovL3d3dy53My5vcmcvMjAwMC9zdmciIHhtbG5zOnY9Imh0dHBzOi8vdmVjdGEuaW8vbmFubyIgd2lkdGg9IjM2NS40NjQ5OTY3NzA0MjQ5MyIgaGVpZ2h0PSIzNzkuMjIyOTk0NDYzNTc3OTUiIHZpZXdCb3g9IjAgMCA5Ni42OTU5OTkxNDU1MDc4MSAxMDAuMzM1OTk4NTM1MTU2MjUiPiYjeGE7PHN0eWxlIHR5cGU9InRleHQvY3NzIj4mI3hhOwkuc3Qwe2ZpbGw6IzQyODVmNDt9JiN4YTsJLnN0MXtmaWxsOiNhZWNiZmE7fSYjeGE7PC9zdHlsZT4mI3hhOwk8cGF0aCBjbGFzcz0ic3QwIiBkPSJNMjkuNzk0IDEwMC4zMzZMNDYuOTIgNTAuMTY4aDQ5Ljc3NnpNMCA5OS42NzFsMTIuOTc2LTQ5LjUwMkgyOS4yMkwxNi44OTcgOTIuMDU0eiIvPiYjeGE7CTxwYXRoIGNsYXNzPSJzdDEiIGQ9Ik0yOS43OTQgMEw0Ni45MiA1MC4xNjhoNDkuNzc2ek0wIC42NjZsMTIuOTc2IDQ5LjUwMkgyOS4yMkwxNi44OTcgOC4yODN6Ii8+JiN4YTs8L3N2Zz4=;spacingTop=-7;spacing=0;connectable=0;allowArrows=0;" vertex="1" parent="r7Uz0amz6yewWXryFc4E-20">
          <mxGeometry width="30" height="30" relative="1" as="geometry">
            <mxPoint x="5" y="5" as="offset" />
          </mxGeometry>
        </mxCell>
        <mxCell id="r7Uz0amz6yewWXryFc4E-22" value="BS" style="text;html=1;align=right;verticalAlign=top;whiteSpace=wrap;rounded=0;spacing=4;spacingTop=-6;fontColor=#999999;connectable=0;allowArrows=0;" vertex="1" parent="r7Uz0amz6yewWXryFc4E-20">
          <mxGeometry x="138" width="22" height="15" as="geometry" />
        </mxCell>
        <mxCell id="r7Uz0amz6yewWXryFc4E-23" value="SMTP consumer" style="strokeColor=#82b366;shadow=1;strokeWidth=2;rounded=1;absoluteArcSize=1;arcSize=2;fillColor=#d5e8d4;spacingTop=10;spacingLeft=28;dropTarget=0;" vertex="1" parent="r7Uz0amz6yewWXryFc4E-4">
          <mxGeometry x="472.38" y="260.0000000000001" width="160" height="40" as="geometry" />
        </mxCell>
        <mxCell id="r7Uz0amz6yewWXryFc4E-24" value="Cloud Run" style="editableCssRules=.*;html=1;fontColor=#999999;shape=image;verticalLabelPosition=middle;verticalAlign=top;labelPosition=right;align=left;spacingLeft=5;part=1;points=[];imageAspect=0;image=data:image/svg+xml,PHN2ZyB4bWxucz0iaHR0cDovL3d3dy53My5vcmcvMjAwMC9zdmciIHhtbG5zOnY9Imh0dHBzOi8vdmVjdGEuaW8vbmFubyIgd2lkdGg9IjM2NS40NjQ5OTY3NzA0MjQ5MyIgaGVpZ2h0PSIzNzkuMjIyOTk0NDYzNTc3OTUiIHZpZXdCb3g9IjAgMCA5Ni42OTU5OTkxNDU1MDc4MSAxMDAuMzM1OTk4NTM1MTU2MjUiPiYjeGE7PHN0eWxlIHR5cGU9InRleHQvY3NzIj4mI3hhOwkuc3Qwe2ZpbGw6IzQyODVmNDt9JiN4YTsJLnN0MXtmaWxsOiNhZWNiZmE7fSYjeGE7PC9zdHlsZT4mI3hhOwk8cGF0aCBjbGFzcz0ic3QwIiBkPSJNMjkuNzk0IDEwMC4zMzZMNDYuOTIgNTAuMTY4aDQ5Ljc3NnpNMCA5OS42NzFsMTIuOTc2LTQ5LjUwMkgyOS4yMkwxNi44OTcgOTIuMDU0eiIvPiYjeGE7CTxwYXRoIGNsYXNzPSJzdDEiIGQ9Ik0yOS43OTQgMEw0Ni45MiA1MC4xNjhoNDkuNzc2ek0wIC42NjZsMTIuOTc2IDQ5LjUwMkgyOS4yMkwxNi44OTcgOC4yODN6Ii8+JiN4YTs8L3N2Zz4=;spacingTop=-7;spacing=0;connectable=0;allowArrows=0;" vertex="1" parent="r7Uz0amz6yewWXryFc4E-23">
          <mxGeometry width="30" height="30" relative="1" as="geometry">
            <mxPoint x="5" y="5" as="offset" />
          </mxGeometry>
        </mxCell>
        <mxCell id="r7Uz0amz6yewWXryFc4E-25" value="BS" style="text;html=1;align=right;verticalAlign=top;whiteSpace=wrap;rounded=0;spacing=4;spacingTop=-6;fontColor=#999999;connectable=0;allowArrows=0;" vertex="1" parent="r7Uz0amz6yewWXryFc4E-23">
          <mxGeometry x="138" width="22" height="15" as="geometry" />
        </mxCell>
        <mxCell id="r7Uz0amz6yewWXryFc4E-26" value="PCM consumer" style="strokeColor=#666666;shadow=1;strokeWidth=2;rounded=1;absoluteArcSize=1;arcSize=2;fillColor=#f5f5f5;fontColor=#333333;spacingTop=10;spacingLeft=28;dropTarget=0;" vertex="1" parent="r7Uz0amz6yewWXryFc4E-4">
          <mxGeometry x="472.38" y="310.0000000000001" width="160" height="40" as="geometry" />
        </mxCell>
        <mxCell id="r7Uz0amz6yewWXryFc4E-27" value="Cloud Run" style="editableCssRules=.*;html=1;fontColor=#999999;shape=image;verticalLabelPosition=middle;verticalAlign=top;labelPosition=right;align=left;spacingLeft=5;part=1;points=[];imageAspect=0;image=data:image/svg+xml,PHN2ZyB4bWxucz0iaHR0cDovL3d3dy53My5vcmcvMjAwMC9zdmciIHhtbG5zOnY9Imh0dHBzOi8vdmVjdGEuaW8vbmFubyIgd2lkdGg9IjM2NS40NjQ5OTY3NzA0MjQ5MyIgaGVpZ2h0PSIzNzkuMjIyOTk0NDYzNTc3OTUiIHZpZXdCb3g9IjAgMCA5Ni42OTU5OTkxNDU1MDc4MSAxMDAuMzM1OTk4NTM1MTU2MjUiPiYjeGE7PHN0eWxlIHR5cGU9InRleHQvY3NzIj4mI3hhOwkuc3Qwe2ZpbGw6IzQyODVmNDt9JiN4YTsJLnN0MXtmaWxsOiNhZWNiZmE7fSYjeGE7PC9zdHlsZT4mI3hhOwk8cGF0aCBjbGFzcz0ic3QwIiBkPSJNMjkuNzk0IDEwMC4zMzZMNDYuOTIgNTAuMTY4aDQ5Ljc3NnpNMCA5OS42NzFsMTIuOTc2LTQ5LjUwMkgyOS4yMkwxNi44OTcgOTIuMDU0eiIvPiYjeGE7CTxwYXRoIGNsYXNzPSJzdDEiIGQ9Ik0yOS43OTQgMEw0Ni45MiA1MC4xNjhoNDkuNzc2ek0wIC42NjZsMTIuOTc2IDQ5LjUwMkgyOS4yMkwxNi44OTcgOC4yODN6Ii8+JiN4YTs8L3N2Zz4=;spacingTop=-7;spacing=0;connectable=0;allowArrows=0;" vertex="1" parent="r7Uz0amz6yewWXryFc4E-26">
          <mxGeometry width="30" height="30" relative="1" as="geometry">
            <mxPoint x="5" y="5" as="offset" />
          </mxGeometry>
        </mxCell>
        <mxCell id="r7Uz0amz6yewWXryFc4E-28" value="BS" style="text;html=1;align=right;verticalAlign=top;whiteSpace=wrap;rounded=0;spacing=4;spacingTop=-6;fontColor=#999999;connectable=0;allowArrows=0;" vertex="1" parent="r7Uz0amz6yewWXryFc4E-26">
          <mxGeometry x="138" width="22" height="15" as="geometry" />
        </mxCell>
        <mxCell id="r7Uz0amz6yewWXryFc4E-29" value="Kaleyra consumer" style="strokeColor=#666666;shadow=1;strokeWidth=2;rounded=1;absoluteArcSize=1;arcSize=2;fillColor=#f5f5f5;fontColor=#333333;spacingTop=10;spacingLeft=28;dropTarget=0;" vertex="1" parent="r7Uz0amz6yewWXryFc4E-4">
          <mxGeometry x="472.38" y="360.0000000000001" width="160" height="40" as="geometry" />
        </mxCell>
        <mxCell id="r7Uz0amz6yewWXryFc4E-30" value="Cloud Run" style="editableCssRules=.*;html=1;fontColor=#999999;shape=image;verticalLabelPosition=middle;verticalAlign=top;labelPosition=right;align=left;spacingLeft=5;part=1;points=[];imageAspect=0;image=data:image/svg+xml,PHN2ZyB4bWxucz0iaHR0cDovL3d3dy53My5vcmcvMjAwMC9zdmciIHhtbG5zOnY9Imh0dHBzOi8vdmVjdGEuaW8vbmFubyIgd2lkdGg9IjM2NS40NjQ5OTY3NzA0MjQ5MyIgaGVpZ2h0PSIzNzkuMjIyOTk0NDYzNTc3OTUiIHZpZXdCb3g9IjAgMCA5Ni42OTU5OTkxNDU1MDc4MSAxMDAuMzM1OTk4NTM1MTU2MjUiPiYjeGE7PHN0eWxlIHR5cGU9InRleHQvY3NzIj4mI3hhOwkuc3Qwe2ZpbGw6IzQyODVmNDt9JiN4YTsJLnN0MXtmaWxsOiNhZWNiZmE7fSYjeGE7PC9zdHlsZT4mI3hhOwk8cGF0aCBjbGFzcz0ic3QwIiBkPSJNMjkuNzk0IDEwMC4zMzZMNDYuOTIgNTAuMTY4aDQ5Ljc3NnpNMCA5OS42NzFsMTIuOTc2LTQ5LjUwMkgyOS4yMkwxNi44OTcgOTIuMDU0eiIvPiYjeGE7CTxwYXRoIGNsYXNzPSJzdDEiIGQ9Ik0yOS43OTQgMEw0Ni45MiA1MC4xNjhoNDkuNzc2ek0wIC42NjZsMTIuOTc2IDQ5LjUwMkgyOS4yMkwxNi44OTcgOC4yODN6Ii8+JiN4YTs8L3N2Zz4=;spacingTop=-7;spacing=0;connectable=0;allowArrows=0;" vertex="1" parent="r7Uz0amz6yewWXryFc4E-29">
          <mxGeometry width="30" height="30" relative="1" as="geometry">
            <mxPoint x="5" y="5" as="offset" />
          </mxGeometry>
        </mxCell>
        <mxCell id="r7Uz0amz6yewWXryFc4E-31" value="BS" style="text;html=1;align=right;verticalAlign=top;whiteSpace=wrap;rounded=0;spacing=4;spacingTop=-6;fontColor=#999999;connectable=0;allowArrows=0;" vertex="1" parent="r7Uz0amz6yewWXryFc4E-29">
          <mxGeometry x="138" width="22" height="15" as="geometry" />
        </mxCell>
        <mxCell id="r7Uz0amz6yewWXryFc4E-52" value="events" style="strokeWidth=2;html=1;shape=mxgraph.flowchart.database;whiteSpace=wrap;fillColor=#f5f5f5;fontColor=#333333;strokeColor=#666666;spacingTop=10;dropTarget=0;container=0;collapsible=0;recursiveResize=1;spacingLeft=20;shadow=1;" vertex="1" parent="r7Uz0amz6yewWXryFc4E-4">
          <mxGeometry x="54.88" y="330" width="130" height="60" as="geometry" />
        </mxCell>
        <mxCell id="r7Uz0amz6yewWXryFc4E-53" value="BigQuery" style="text;html=1;align=center;verticalAlign=middle;whiteSpace=wrap;rounded=0;fontColor=#999999;movable=0;allowArrows=0;connectable=0;" vertex="1" parent="r7Uz0amz6yewWXryFc4E-52">
          <mxGeometry width="130" height="20" as="geometry" />
        </mxCell>
        <mxCell id="r7Uz0amz6yewWXryFc4E-54" value="" style="sketch=0;html=1;verticalAlign=top;labelPosition=center;verticalLabelPosition=bottom;align=center;spacingTop=-6;fontSize=11;fontStyle=1;fontColor=#999999;shape=image;aspect=fixed;imageAspect=0;image=data:image/svg+xml,PHN2ZyB4bWxucz0iaHR0cDovL3d3dy53My5vcmcvMjAwMC9zdmciIHhtbG5zOnY9Imh0dHBzOi8vdmVjdGEuaW8vbmFubyIgd2lkdGg9IjIwLjAwMTA0NTIyNzA1MDc4IiBoZWlnaHQ9IjIwLjAwMTA0NTIyNzA1MDc4IiBmaWxsLXJ1bGU9ImV2ZW5vZGQiIHZpZXdCb3g9IjAgMCAyMC4wMDEwNDUyMjcwNTA3OCAyMC4wMDEwNDUyMjcwNTA3OCI+JiN4YTsJPHN0eWxlIHR5cGU9InRleHQvY3NzIj4mI3hhOwkuc3Qwe2ZpbGw6I2FlY2JmYTt9JiN4YTsJLnN0MXtmaWxsOiM2NjlkZjY7fSYjeGE7CS5zdDJ7ZmlsbDojNDI4NWY0O30mI3hhOwk8L3N0eWxlPiYjeGE7CTxwYXRoIGNsYXNzPSJzdDAiIGQ9Ik00LjczIDguODN2Mi42M2E0LjkxIDQuOTEgMCAwIDAgMS43MSAxLjc0VjguODN6Ii8+JiN4YTsJPHBhdGggY2xhc3M9InN0MSIgZD0iTTcuODkgNi40MXY3LjUzQTcuNjIgNy42MiAwIDAgMCA5IDE0YTggOCAwIDAgMCAxIDBWNi40MXoiLz4mI3hhOwk8cGF0aCBjbGFzcz0ic3QwIiBkPSJNMTEuNjQgOS44NnYzLjI5YTUgNSAwIDAgMCAxLjctMS44MlY5Ljg2eiIvPiYjeGE7CTxwYXRoIGNsYXNzPSJzdDIiIGQ9Ik0xNS43NCAxNC4zMmwtMS40MiAxLjQyYS40Mi40MiAwIDAgMCAwIC42bDMuNTQgMy41NGEuNDIuNDIgMCAwIDAgLjU5IDBsMS40My0xLjQzYS40Mi40MiAwIDAgMCAwLS41OWwtMy41NC0zLjU0YS40Mi40MiAwIDAgMC0uNiAwIi8+JiN4YTsJPHBhdGggY2xhc3M9InN0MSIgZD0iTTkgMGE5IDkgMCAxIDAgMCAxOEE5IDkgMCAxIDAgOSAwbTAgMTUuNjlhNi42OCA2LjY4IDAgMCAxIC4wMDctMTMuMzYgNi42OCA2LjY4IDAgMCAxIDQuNzI3IDExLjQwM0E2LjY4IDYuNjggMCAwIDEgOSAxNS42OSIvPiYjeGE7PC9zdmc+;resizable=0;connectable=0;allowArrows=0;recursiveResize=0;expand=0;rotatable=0;cloneable=0;deletable=0;" vertex="1" parent="r7Uz0amz6yewWXryFc4E-52">
          <mxGeometry x="5" y="20" width="30" height="30" as="geometry" />
        </mxCell>
        <mxCell id="r7Uz0amz6yewWXryFc4E-342" value="" style="endArrow=classic;html=1;rounded=0;exitX=1;exitY=0.5;exitDx=0;exitDy=0;entryX=0;entryY=0.5;entryDx=0;entryDy=0;entryPerimeter=0;" edge="1" parent="r7Uz0amz6yewWXryFc4E-4" source="r7Uz0amz6yewWXryFc4E-7" target="r7Uz0amz6yewWXryFc4E-10">
          <mxGeometry width="50" height="50" relative="1" as="geometry">
            <mxPoint x="200" y="270" as="sourcePoint" />
            <mxPoint x="250" y="220" as="targetPoint" />
          </mxGeometry>
        </mxCell>
        <mxCell id="r7Uz0amz6yewWXryFc4E-351" value="" style="ellipse;whiteSpace=wrap;html=1;aspect=fixed;fillColor=#000000;" vertex="1" parent="r7Uz0amz6yewWXryFc4E-4">
          <mxGeometry x="230" y="229.5" width="1" height="1" as="geometry" />
        </mxCell>
        <mxCell id="r7Uz0amz6yewWXryFc4E-357" style="edgeStyle=orthogonalEdgeStyle;rounded=0;orthogonalLoop=1;jettySize=auto;html=1;entryX=0;entryY=0.5;entryDx=0;entryDy=0;entryPerimeter=0;curved=1;" edge="1" parent="r7Uz0amz6yewWXryFc4E-4" source="r7Uz0amz6yewWXryFc4E-351" target="r7Uz0amz6yewWXryFc4E-14">
          <mxGeometry relative="1" as="geometry" />
        </mxCell>
        <mxCell id="r7Uz0amz6yewWXryFc4E-358" style="edgeStyle=orthogonalEdgeStyle;rounded=0;orthogonalLoop=1;jettySize=auto;html=1;entryX=0;entryY=0.5;entryDx=0;entryDy=0;entryPerimeter=0;curved=1;" edge="1" parent="r7Uz0amz6yewWXryFc4E-4" source="r7Uz0amz6yewWXryFc4E-351" target="r7Uz0amz6yewWXryFc4E-16">
          <mxGeometry relative="1" as="geometry" />
        </mxCell>
        <mxCell id="r7Uz0amz6yewWXryFc4E-359" style="edgeStyle=orthogonalEdgeStyle;rounded=0;orthogonalLoop=1;jettySize=auto;html=1;entryX=0;entryY=0.5;entryDx=0;entryDy=0;entryPerimeter=0;curved=1;" edge="1" parent="r7Uz0amz6yewWXryFc4E-4" source="r7Uz0amz6yewWXryFc4E-351" target="r7Uz0amz6yewWXryFc4E-18">
          <mxGeometry relative="1" as="geometry" />
        </mxCell>
        <mxCell id="r7Uz0amz6yewWXryFc4E-116" style="edgeStyle=orthogonalEdgeStyle;rounded=0;orthogonalLoop=1;jettySize=auto;html=1;exitX=0.96;exitY=0.65;exitDx=0;exitDy=0;exitPerimeter=0;entryX=0;entryY=0.5;entryDx=0;entryDy=0;" edge="1" parent="r7Uz0amz6yewWXryFc4E-1" source="r7Uz0amz6yewWXryFc4E-112" target="r7Uz0amz6yewWXryFc4E-113">
          <mxGeometry relative="1" as="geometry" />
        </mxCell>
        <mxCell id="r7Uz0amz6yewWXryFc4E-118" value="Update&lt;div&gt;Optin&lt;/div&gt;" style="edgeLabel;html=1;align=center;verticalAlign=middle;resizable=0;points=[];" vertex="1" connectable="0" parent="r7Uz0amz6yewWXryFc4E-116">
          <mxGeometry x="-0.2048" y="1" relative="1" as="geometry">
            <mxPoint as="offset" />
          </mxGeometry>
        </mxCell>
        <mxCell id="r7Uz0amz6yewWXryFc4E-112" value="" style="pointerEvents=1;shadow=1;dashed=0;html=1;strokeColor=#666666;labelPosition=center;verticalLabelPosition=bottom;verticalAlign=top;align=center;fillColor=#f5f5f5;shape=mxgraph.mscae.intune.user_group;rounded=0;fontFamily=Helvetica;fontSize=12;fontColor=#333333;strokeWidth=2;" vertex="1" parent="r7Uz0amz6yewWXryFc4E-1">
          <mxGeometry x="360" y="220" width="50" height="37" as="geometry" />
        </mxCell>
        <mxCell id="r7Uz0amz6yewWXryFc4E-61" value="Datalake" style="strokeWidth=2;html=1;shape=mxgraph.flowchart.database;whiteSpace=wrap;fillColor=#f5f5f5;fontColor=#333333;strokeColor=#666666;spacingTop=10;dropTarget=0;container=0;collapsible=0;recursiveResize=1;spacingLeft=20;shadow=1;" vertex="1" parent="r7Uz0amz6yewWXryFc4E-1">
          <mxGeometry x="250" y="670" width="130" height="60" as="geometry" />
        </mxCell>
        <mxCell id="r7Uz0amz6yewWXryFc4E-62" value="BigQuery" style="text;html=1;align=center;verticalAlign=middle;whiteSpace=wrap;rounded=0;fontColor=#999999;movable=0;allowArrows=0;connectable=0;" vertex="1" parent="r7Uz0amz6yewWXryFc4E-61">
          <mxGeometry width="130" height="20" as="geometry" />
        </mxCell>
        <mxCell id="r7Uz0amz6yewWXryFc4E-63" value="" style="sketch=0;html=1;verticalAlign=top;labelPosition=center;verticalLabelPosition=bottom;align=center;spacingTop=-6;fontSize=11;fontStyle=1;fontColor=#999999;shape=image;aspect=fixed;imageAspect=0;image=data:image/svg+xml,PHN2ZyB4bWxucz0iaHR0cDovL3d3dy53My5vcmcvMjAwMC9zdmciIHhtbG5zOnY9Imh0dHBzOi8vdmVjdGEuaW8vbmFubyIgd2lkdGg9IjIwLjAwMTA0NTIyNzA1MDc4IiBoZWlnaHQ9IjIwLjAwMTA0NTIyNzA1MDc4IiBmaWxsLXJ1bGU9ImV2ZW5vZGQiIHZpZXdCb3g9IjAgMCAyMC4wMDEwNDUyMjcwNTA3OCAyMC4wMDEwNDUyMjcwNTA3OCI+JiN4YTsJPHN0eWxlIHR5cGU9InRleHQvY3NzIj4mI3hhOwkuc3Qwe2ZpbGw6I2FlY2JmYTt9JiN4YTsJLnN0MXtmaWxsOiM2NjlkZjY7fSYjeGE7CS5zdDJ7ZmlsbDojNDI4NWY0O30mI3hhOwk8L3N0eWxlPiYjeGE7CTxwYXRoIGNsYXNzPSJzdDAiIGQ9Ik00LjczIDguODN2Mi42M2E0LjkxIDQuOTEgMCAwIDAgMS43MSAxLjc0VjguODN6Ii8+JiN4YTsJPHBhdGggY2xhc3M9InN0MSIgZD0iTTcuODkgNi40MXY3LjUzQTcuNjIgNy42MiAwIDAgMCA5IDE0YTggOCAwIDAgMCAxIDBWNi40MXoiLz4mI3hhOwk8cGF0aCBjbGFzcz0ic3QwIiBkPSJNMTEuNjQgOS44NnYzLjI5YTUgNSAwIDAgMCAxLjctMS44MlY5Ljg2eiIvPiYjeGE7CTxwYXRoIGNsYXNzPSJzdDIiIGQ9Ik0xNS43NCAxNC4zMmwtMS40MiAxLjQyYS40Mi40MiAwIDAgMCAwIC42bDMuNTQgMy41NGEuNDIuNDIgMCAwIDAgLjU5IDBsMS40My0xLjQzYS40Mi40MiAwIDAgMCAwLS41OWwtMy41NC0zLjU0YS40Mi40MiAwIDAgMC0uNiAwIi8+JiN4YTsJPHBhdGggY2xhc3M9InN0MSIgZD0iTTkgMGE5IDkgMCAxIDAgMCAxOEE5IDkgMCAxIDAgOSAwbTAgMTUuNjlhNi42OCA2LjY4IDAgMCAxIC4wMDctMTMuMzYgNi42OCA2LjY4IDAgMCAxIDQuNzI3IDExLjQwM0E2LjY4IDYuNjggMCAwIDEgOSAxNS42OSIvPiYjeGE7PC9zdmc+;resizable=0;connectable=0;allowArrows=0;recursiveResize=0;expand=0;rotatable=0;cloneable=0;deletable=0;" vertex="1" parent="r7Uz0amz6yewWXryFc4E-61">
          <mxGeometry x="5" y="20" width="30" height="30" as="geometry" />
        </mxCell>
        <mxCell id="r7Uz0amz6yewWXryFc4E-65" style="edgeStyle=orthogonalEdgeStyle;rounded=0;orthogonalLoop=1;jettySize=auto;html=1;exitX=0;exitY=0.5;exitDx=0;exitDy=0;exitPerimeter=0;entryX=1;entryY=0.5;entryDx=0;entryDy=0;entryPerimeter=0;" edge="1" parent="r7Uz0amz6yewWXryFc4E-1" source="r7Uz0amz6yewWXryFc4E-52" target="r7Uz0amz6yewWXryFc4E-61">
          <mxGeometry relative="1" as="geometry" />
        </mxCell>
        <mxCell id="r7Uz0amz6yewWXryFc4E-132" style="edgeStyle=orthogonalEdgeStyle;rounded=0;orthogonalLoop=1;jettySize=auto;html=1;exitX=1;exitY=0.5;exitDx=0;exitDy=0;exitPerimeter=0;entryX=1;entryY=0.5;entryDx=0;entryDy=0;fillColor=#dae8fc;strokeColor=#6c8ebf;strokeWidth=2;" edge="1" parent="r7Uz0amz6yewWXryFc4E-1" source="r7Uz0amz6yewWXryFc4E-66" target="r7Uz0amz6yewWXryFc4E-107">
          <mxGeometry relative="1" as="geometry" />
        </mxCell>
        <mxCell id="r7Uz0amz6yewWXryFc4E-327" style="edgeStyle=orthogonalEdgeStyle;rounded=0;orthogonalLoop=1;jettySize=auto;html=1;exitX=1;exitY=0.5;exitDx=0;exitDy=0;entryX=0;entryY=0.5;entryDx=0;entryDy=0;" edge="1" parent="r7Uz0amz6yewWXryFc4E-1" source="r7Uz0amz6yewWXryFc4E-325" target="r7Uz0amz6yewWXryFc4E-7">
          <mxGeometry relative="1" as="geometry" />
        </mxCell>
        <mxCell id="r7Uz0amz6yewWXryFc4E-325" value="Clients" style="rounded=1;whiteSpace=wrap;html=1;strokeWidth=2;container=1;collapsible=0;recursiveResize=0;fillColor=#dae8fc;strokeColor=#6c8ebf;dropTarget=1;dashed=1;shadow=1;arcSize=2;verticalAlign=top;align=left;spacingLeft=26;" vertex="1" parent="r7Uz0amz6yewWXryFc4E-1">
          <mxGeometry x="190" y="440" width="190" height="191" as="geometry" />
        </mxCell>
        <mxCell id="r7Uz0amz6yewWXryFc4E-199" value="Digital" style="pointerEvents=1;shadow=1;dashed=0;html=1;strokeColor=#666666;labelPosition=center;verticalLabelPosition=bottom;verticalAlign=top;align=center;fillColor=#f5f5f5;shape=mxgraph.mscae.intune.user_group;rounded=0;fontFamily=Helvetica;fontSize=12;fontColor=#333333;strokeWidth=2;" vertex="1" parent="r7Uz0amz6yewWXryFc4E-325">
          <mxGeometry x="25" y="32.75" width="50" height="37" as="geometry" />
        </mxCell>
        <mxCell id="r7Uz0amz6yewWXryFc4E-270" value="ARS" style="pointerEvents=1;shadow=1;dashed=0;html=1;strokeColor=#666666;labelPosition=center;verticalLabelPosition=bottom;verticalAlign=top;align=center;fillColor=#f5f5f5;shape=mxgraph.mscae.intune.user_group;rounded=0;fontFamily=Helvetica;fontSize=12;fontColor=#333333;strokeWidth=2;" vertex="1" parent="r7Uz0amz6yewWXryFc4E-325">
          <mxGeometry x="100" y="32" width="50" height="37" as="geometry" />
        </mxCell>
        <mxCell id="r7Uz0amz6yewWXryFc4E-268" value="Commercial" style="pointerEvents=1;shadow=1;dashed=0;html=1;strokeColor=#666666;labelPosition=center;verticalLabelPosition=bottom;verticalAlign=top;align=center;fillColor=#f5f5f5;shape=mxgraph.mscae.intune.user_group;rounded=0;fontFamily=Helvetica;fontSize=12;fontColor=#333333;strokeWidth=2;" vertex="1" parent="r7Uz0amz6yewWXryFc4E-325">
          <mxGeometry x="25" y="102" width="50" height="37" as="geometry" />
        </mxCell>
        <mxCell id="r7Uz0amz6yewWXryFc4E-269" value="Loyalty" style="pointerEvents=1;shadow=1;dashed=0;html=1;strokeColor=#666666;labelPosition=center;verticalLabelPosition=bottom;verticalAlign=top;align=center;fillColor=#f5f5f5;shape=mxgraph.mscae.intune.user_group;rounded=0;fontFamily=Helvetica;fontSize=12;fontColor=#333333;strokeWidth=2;" vertex="1" parent="r7Uz0amz6yewWXryFc4E-325">
          <mxGeometry x="100" y="102" width="50" height="37" as="geometry" />
        </mxCell>
        <mxCell id="r7Uz0amz6yewWXryFc4E-38" value="Kaleyra" style="rounded=1;whiteSpace=wrap;html=1;strokeWidth=2;container=1;collapsible=0;recursiveResize=1;fillColor=#f5f5f5;strokeColor=#666666;fontColor=#333333;dropTarget=0;shadow=1;arcSize=2;" vertex="1" parent="1">
          <mxGeometry x="1070" y="510.0000000000001" width="120" height="40" as="geometry" />
        </mxCell>
        <mxCell id="r7Uz0amz6yewWXryFc4E-39" value="3&lt;sup&gt;&lt;font style=&quot;font-size: 11px;&quot;&gt;rd&lt;/font&gt;&lt;/sup&gt;" style="text;html=1;align=left;verticalAlign=top;whiteSpace=wrap;rounded=0;spacing=2;spacingTop=-6;fontSize=15;movable=0;spacingLeft=2;resizable=0;connectable=0;allowArrows=0;recursiveResize=0;expand=0;cloneable=0;rotatable=0;deletable=0;pointerEvents=0;" vertex="1" parent="r7Uz0amz6yewWXryFc4E-38">
          <mxGeometry width="20" height="20" as="geometry" />
        </mxCell>
        <mxCell id="r7Uz0amz6yewWXryFc4E-40" value="V" style="text;html=1;align=right;verticalAlign=top;whiteSpace=wrap;rounded=0;spacing=4;spacingTop=-6;fontColor=#999999;connectable=0;allowArrows=0;" vertex="1" parent="r7Uz0amz6yewWXryFc4E-38">
          <mxGeometry x="98" width="22" height="15" as="geometry" />
        </mxCell>
        <mxCell id="r7Uz0amz6yewWXryFc4E-35" value="PCM" style="rounded=1;whiteSpace=wrap;html=1;strokeWidth=2;container=1;collapsible=0;recursiveResize=1;fillColor=#f5f5f5;strokeColor=#666666;fontColor=#333333;dropTarget=0;shadow=1;arcSize=2;" vertex="1" parent="1">
          <mxGeometry x="1070" y="460.0000000000001" width="120" height="40" as="geometry" />
        </mxCell>
        <mxCell id="r7Uz0amz6yewWXryFc4E-36" value="3&lt;sup&gt;&lt;font style=&quot;font-size: 11px;&quot;&gt;rd&lt;/font&gt;&lt;/sup&gt;" style="text;html=1;align=left;verticalAlign=top;whiteSpace=wrap;rounded=0;spacing=2;spacingTop=-6;fontSize=15;movable=0;spacingLeft=2;resizable=0;connectable=0;allowArrows=0;recursiveResize=0;expand=0;cloneable=0;rotatable=0;deletable=0;pointerEvents=0;" vertex="1" parent="r7Uz0amz6yewWXryFc4E-35">
          <mxGeometry width="20" height="20" as="geometry" />
        </mxCell>
        <mxCell id="r7Uz0amz6yewWXryFc4E-37" value="V" style="text;html=1;align=right;verticalAlign=top;whiteSpace=wrap;rounded=0;spacing=4;spacingTop=-6;fontColor=#999999;connectable=0;allowArrows=0;" vertex="1" parent="r7Uz0amz6yewWXryFc4E-35">
          <mxGeometry x="98" width="22" height="15" as="geometry" />
        </mxCell>
        <mxCell id="r7Uz0amz6yewWXryFc4E-41" value="Office 365" style="rounded=1;whiteSpace=wrap;html=1;strokeWidth=2;container=1;collapsible=0;recursiveResize=1;fillColor=#f5f5f5;strokeColor=#666666;fontColor=#333333;dropTarget=0;shadow=1;arcSize=2;" vertex="1" parent="1">
          <mxGeometry x="1070" y="410.0000000000001" width="120" height="40" as="geometry" />
        </mxCell>
        <mxCell id="r7Uz0amz6yewWXryFc4E-42" value="3&lt;sup&gt;&lt;font style=&quot;font-size: 11px;&quot;&gt;rd&lt;/font&gt;&lt;/sup&gt;" style="text;html=1;align=left;verticalAlign=top;whiteSpace=wrap;rounded=0;spacing=2;spacingTop=-6;fontSize=15;movable=0;spacingLeft=2;resizable=0;connectable=0;allowArrows=0;recursiveResize=0;expand=0;cloneable=0;rotatable=0;deletable=0;pointerEvents=0;" vertex="1" parent="r7Uz0amz6yewWXryFc4E-41">
          <mxGeometry width="20" height="20" as="geometry" />
        </mxCell>
        <mxCell id="r7Uz0amz6yewWXryFc4E-43" value="V" style="text;html=1;align=right;verticalAlign=top;whiteSpace=wrap;rounded=0;spacing=4;spacingTop=-6;fontColor=#999999;connectable=0;allowArrows=0;" vertex="1" parent="r7Uz0amz6yewWXryFc4E-41">
          <mxGeometry x="98" width="22" height="15" as="geometry" />
        </mxCell>
        <mxCell id="r7Uz0amz6yewWXryFc4E-32" value="Act-on" style="rounded=1;whiteSpace=wrap;html=1;strokeWidth=2;container=1;collapsible=0;recursiveResize=1;fillColor=#f5f5f5;strokeColor=#666666;fontColor=#333333;dropTarget=0;shadow=1;arcSize=2;" vertex="1" parent="1">
          <mxGeometry x="1070" y="360.0000000000001" width="120" height="40" as="geometry" />
        </mxCell>
        <mxCell id="r7Uz0amz6yewWXryFc4E-33" value="3&lt;sup&gt;&lt;font style=&quot;font-size: 11px;&quot;&gt;rd&lt;/font&gt;&lt;/sup&gt;" style="text;html=1;align=left;verticalAlign=top;whiteSpace=wrap;rounded=0;spacing=2;spacingTop=-6;fontSize=15;movable=0;spacingLeft=2;resizable=0;connectable=0;allowArrows=0;recursiveResize=0;expand=0;cloneable=0;rotatable=0;deletable=0;pointerEvents=0;" vertex="1" parent="r7Uz0amz6yewWXryFc4E-32">
          <mxGeometry width="20" height="20" as="geometry" />
        </mxCell>
        <mxCell id="r7Uz0amz6yewWXryFc4E-34" value="V" style="text;html=1;align=right;verticalAlign=top;whiteSpace=wrap;rounded=0;spacing=4;spacingTop=-6;fontColor=#999999;connectable=0;allowArrows=0;" vertex="1" parent="r7Uz0amz6yewWXryFc4E-32">
          <mxGeometry x="98" width="22" height="15" as="geometry" />
        </mxCell>
        <mxCell id="r7Uz0amz6yewWXryFc4E-51" style="edgeStyle=orthogonalEdgeStyle;rounded=0;orthogonalLoop=1;jettySize=auto;html=1;exitX=1;exitY=0.5;exitDx=0;exitDy=0;" edge="1" parent="1" source="r7Uz0amz6yewWXryFc4E-29" target="r7Uz0amz6yewWXryFc4E-38">
          <mxGeometry relative="1" as="geometry" />
        </mxCell>
        <mxCell id="r7Uz0amz6yewWXryFc4E-50" style="edgeStyle=orthogonalEdgeStyle;rounded=0;orthogonalLoop=1;jettySize=auto;html=1;exitX=1;exitY=0.5;exitDx=0;exitDy=0;" edge="1" parent="1" source="r7Uz0amz6yewWXryFc4E-26" target="r7Uz0amz6yewWXryFc4E-35">
          <mxGeometry relative="1" as="geometry" />
        </mxCell>
        <mxCell id="r7Uz0amz6yewWXryFc4E-49" style="edgeStyle=orthogonalEdgeStyle;rounded=0;orthogonalLoop=1;jettySize=auto;html=1;exitX=1;exitY=0.5;exitDx=0;exitDy=0;fillColor=#d5e8d4;strokeColor=#82b366;strokeWidth=2;" edge="1" parent="1" source="r7Uz0amz6yewWXryFc4E-23" target="r7Uz0amz6yewWXryFc4E-41">
          <mxGeometry relative="1" as="geometry" />
        </mxCell>
        <mxCell id="r7Uz0amz6yewWXryFc4E-48" style="edgeStyle=orthogonalEdgeStyle;rounded=0;orthogonalLoop=1;jettySize=auto;html=1;exitX=1;exitY=0.5;exitDx=0;exitDy=0;entryX=0;entryY=0.5;entryDx=0;entryDy=0;" edge="1" parent="1" source="r7Uz0amz6yewWXryFc4E-20" target="r7Uz0amz6yewWXryFc4E-32">
          <mxGeometry relative="1" as="geometry" />
        </mxCell>
        <mxCell id="r7Uz0amz6yewWXryFc4E-135" style="edgeStyle=orthogonalEdgeStyle;rounded=0;orthogonalLoop=1;jettySize=auto;html=1;exitX=1;exitY=0.75;exitDx=0;exitDy=0;entryX=1;entryY=0.5;entryDx=0;entryDy=0;strokeWidth=2;fillColor=#dae8fc;strokeColor=#6c8ebf;" edge="1" parent="1" source="r7Uz0amz6yewWXryFc4E-107" target="r7Uz0amz6yewWXryFc4E-35">
          <mxGeometry relative="1" as="geometry" />
        </mxCell>
        <mxCell id="r7Uz0amz6yewWXryFc4E-328" value="" style="rounded=0;whiteSpace=wrap;html=1;container=1;collapsible=0;recursiveResize=1;editable=1;movable=1;resizable=1;rotatable=1;deletable=1;locked=0;connectable=1;dropTarget=1;shadow=1;" vertex="1" parent="1">
          <mxGeometry x="-170" y="750" width="410" height="40" as="geometry" />
        </mxCell>
        <mxCell id="r7Uz0amz6yewWXryFc4E-329" value="Legend" style="text;html=1;strokeColor=none;fillColor=none;align=center;verticalAlign=middle;whiteSpace=wrap;rounded=0;fontSize=14;fontStyle=1;movable=1;editable=0;" vertex="1" parent="r7Uz0amz6yewWXryFc4E-328">
          <mxGeometry x="10.002612481857767" y="10" width="47.60522496371553" height="20" as="geometry" />
        </mxCell>
        <mxCell id="r7Uz0amz6yewWXryFc4E-330" value="NEW" style="rounded=0;whiteSpace=wrap;html=1;fontSize=10;fillColor=#d5e8d4;strokeColor=#82b366;editable=0;movable=1;resizable=1;rotatable=1;deletable=1;locked=0;connectable=1;" vertex="1" parent="r7Uz0amz6yewWXryFc4E-328">
          <mxGeometry x="67" y="10.5" width="51.41" height="19" as="geometry" />
        </mxCell>
        <mxCell id="r7Uz0amz6yewWXryFc4E-331" value="MODIFY" style="rounded=0;whiteSpace=wrap;html=1;fontSize=10;fillColor=#dae8fc;strokeColor=#6c8ebf;editable=0;" vertex="1" parent="r7Uz0amz6yewWXryFc4E-328">
          <mxGeometry x="118.41000000000001" y="10.5" width="69.78" height="19" as="geometry" />
        </mxCell>
        <mxCell id="r7Uz0amz6yewWXryFc4E-332" value="AS IS" style="rounded=0;whiteSpace=wrap;html=1;fontSize=10;fillColor=#f5f5f5;fontColor=#333333;strokeColor=#666666;editable=0;" vertex="1" parent="r7Uz0amz6yewWXryFc4E-328">
          <mxGeometry x="188.40999999999997" y="10.5" width="50" height="19" as="geometry" />
        </mxCell>
        <mxCell id="r7Uz0amz6yewWXryFc4E-333" value="RETIRED" style="rounded=0;whiteSpace=wrap;html=1;fontSize=10;fillColor=#f8cecc;strokeColor=#b85450;editable=0;" vertex="1" parent="r7Uz0amz6yewWXryFc4E-328">
          <mxGeometry x="238.5523222060957" y="10.5" width="71.55065312046443" height="19" as="geometry" />
        </mxCell>
        <mxCell id="r7Uz0amz6yewWXryFc4E-334" value="TRANSITIONAL" style="rounded=0;whiteSpace=wrap;html=1;fontSize=10;fillColor=#ffe6cc;strokeColor=#d79b00;editable=0;" vertex="1" parent="r7Uz0amz6yewWXryFc4E-328">
          <mxGeometry x="310.1" y="10.5" width="90.45" height="19" as="geometry" />
        </mxCell>
      </root>
    </mxGraphModel>
  </diagram>
</mxfile>
